<?xml version="1.0" encoding="UTF-8"?>
<svg xmlns="http://www.w3.org/2000/svg" version="1.1" viewBox="0 0 146.02 204.76">
  <defs>
    <style>
      .cls-1, .cls-2, .cls-3, .cls-4, .cls-5, .cls-6, .cls-7, .cls-8, .cls-9, .cls-10, .cls-11 {
        fill-rule: evenodd;
      }

      .cls-1, .cls-7 {
        fill: #fff;
      }

      .cls-2 {
        fill: #e6eee4;
      }

      .cls-3 {
        fill: #ced1c6;
      }

      .cls-4 {
        fill: #f20372;
      }

      .cls-5 {
        fill: #fedcdd;
      }

      .cls-5, .cls-9 {
        opacity: .5;
      }

      .cls-6, .cls-10 {
        fill: #c6bbb6;
      }

      .cls-7, .cls-10 {
        opacity: .35;
      }

      .cls-8 {
        fill: #6b503d;
      }

      .cls-9 {
        fill: #ef9eb7;
      }

      .cls-10 {
        display: none;
      }

      .cls-11 {
        fill: #f35b9b;
      }
    </style>
  </defs>
  <!-- Generator: Adobe Illustrator 28.7.1, SVG Export Plug-In . SVG Version: 1.2.0 Build 142)  -->
  <g>
    <g id="Tasse_Kopie">
      <path class="cls-1" d="M69.32,204.76c-13.34,0-24.33-2.25-24.33-3.86v-.63c7.53,1.31,15.67,2.1,24.16,2.1s16.86-.81,24.48-2.16v.68c0,1.61-10.97,3.86-24.31,3.86Z"/>
      <path class="cls-3" d="M.43,180.69c4.79,8.39,33.87,21.69,68.73,21.69s63.94-13.3,68.73-21.69c-3.84,4.06-33.14,8.76-68.73,8.76S4.27,184.76.43,180.69Z"/>
      <path class="cls-2" d="M69.16,191.62c38.09,0,69.16-5.49,69.16-12.22s-31.07-12.22-69.16-12.22S0,172.66,0,179.39s31.07,12.22,69.16,12.22Z"/>
      <path class="cls-3" d="M69.16,189.45c36.9,0,66.99-4.52,66.99-10.06s-30.09-10.06-66.99-10.06S2.17,173.86,2.17,179.39s30.09,10.06,66.99,10.06Z"/>
      <path class="cls-2" d="M44.76,190.56c5.15,3.14,12.98,7.26,23.69,10.57.28,0,.55,0,.83,0h.6c-9.77-3.29-16.89-7.29-21.63-10.39-1.19-.06-2.35-.12-3.5-.18h0ZM64.7,201.05c-14.19-.51-27.92-4.28-38.74-12.21,4.08.57,8.94,1.05,14.37,1.43,5.15,3.17,13.17,7.42,24.37,10.77Z"/>
      <path class="cls-2" d="M69.16,130.47c28.8,0,52.28-5.49,52.28-12.22s-23.49-12.22-52.28-12.22-52.28,5.49-52.28,12.22,23.49,12.22,52.28,12.22Z"/>
      <path class="cls-6" d="M69.16,127.22c27.01,0,49.03-4.03,49.03-8.97s-22.03-8.97-49.03-8.97-49.03,4.03-49.03,8.97,22.03,8.97,49.03,8.97Z"/>
      <path class="cls-8" d="M115.34,121.27c-6.78,3.47-24.89,5.95-46.18,5.95s-39.41-2.48-46.18-5.95c6.78-3.47,24.89-5.95,46.18-5.95s39.41,2.48,46.18,5.95Z"/>
      <path class="cls-3" d="M92.41,188.78c-7.26.43-15.09.67-23.25.67-6.09,0-11.99-.14-17.62-.39-.15,0-.28,0-.43-.02-.99-.05-1.99-.09-2.96-.15-1.39-.08-2.76-.15-4.1-.24-1.53-.1-3.03-.21-4.5-.32-.1-.09-.21-.18-.31-.28-11.22-10.67-22.19-34.35-22.37-69.81,0,1.34.92,2.63,2.63,3.83.5.35,1.07.7,1.7,1.04.16.09.33.18.5.26.42.21.86.42,1.33.62.16.08.32.15.49.21,1.28.54,2.72,1.05,4.32,1.53.29.09.58.18.89.27.39.11.79.21,1.2.33.24.06.5.13.76.19.33.08.66.17,1.01.25,1.26.31,2.59.59,3.97.86,1.07.21,2.17.41,3.32.6,8.53,1.41,18.94,2.24,30.17,2.24,17.5,0,32.99-2.01,42.47-5.1.05-.02.11-.04.16-.05.31-.1.63-.21.92-.31.95-.33,1.82-.67,2.63-1.02.32-.15.63-.29.94-.44.9-.44,1.7-.89,2.38-1.36,1.8-1.24,2.78-2.56,2.78-3.94-.18,35.46-11.15,59.14-22.37,69.81-.1.1-.21.19-.31.28-1.28.1-2.6.19-3.93.28l-2.43.15Z"/>
      <path class="cls-2" d="M38.98,128.23c-1.15-.19-2.25-.39-3.32-.6.61,17.59,3.19,45.35,15.45,61.42.15,0,.28.02.43.02-10.62-16.57-12.39-43.41-12.56-60.83ZM31.69,126.77c-.34-.08-.68-.17-1.01-.25-.26-.06-.51-.13-.76-.19-.41-.11-.81-.22-1.2-.33-.31-.09-.6-.18-.89-.27-1.6-.48-3.05-.99-4.32-1.53-.17-.06-.33-.13-.49-.21-.47-.2-.91-.4-1.33-.62-.17-.08-.34-.17-.5-.26-.63-.34-1.2-.69-1.7-1.04,0,.44.03,1.25.04,1.31.91,13.44,2.27,25.45,6.9,38.44,3.06,8.57,7.86,18.08,14.54,24.43.99.93,2.01,1.73,3.07,2.41,1.34.08,2.71.16,4.1.24-13.3-15.76-15.88-44.48-16.46-62.13Z"/>
      <path class="cls-2" d="M94.84,188.63c.51-.41,1.02-.86,1.52-1.32,10.79-10.15,21.36-32.22,22.3-65.12-.68.47-1.47.92-2.38,1.36-.31.15-.62.29-.94.44-.81.35-1.68.7-2.63,1.02-.3.11-.61.21-.92.31-.05.02-.11.04-.16.05-1.93,30.15-9.85,50.96-19.22,63.41l2.43-.15Z"/>
      <path class="cls-4" d="M140.54,126.37c3.69,5.85,5.61,13.52,5.47,20.05-.14,6.74-2.16,13.06-7.32,18.15-4.7,4.63-9.31,4.26-12.21,1.31-3.68-3.74-5.9-2.63-5.92-.67-.07,5.88,7.27,7.35,10.09,7.37,2.17.01,1.56,5.28-1.69,5.13-6.22-.3-12.86-4.97-14.31-10.6-1.46-5.67,1.28-12.16,11.63-8.17,8.6,3.31,9.86-4.3,7.43-12.47-.84-2.81-2.62-5.94-5.29-7.22-4.78-2.28-7.52-6.4-9.24-10.73-1.62-4.09,1.6-7.01,2.21-5.3,3.44,9.66,7.95,11,8.55,7.82,2.19-11.56,8.43-8.12,10.61-4.66Z"/>
      <path class="cls-4" d="M140.25,126.54c-.44-.7-1.02-1.34-1.65-1.87-.76-.62-1.68-1.13-2.65-1.25-3.73-.46-5.17,5-5.68,7.68-.13.68-.45,1.33-1.09,1.63-1.34.65-2.94-.62-3.84-1.58-1.95-2.08-3.36-5.24-4.3-7.86-.03-.08-.08-.2-.17-.23-.5-.21-1.23.9-1.39,1.23-.61,1.26-.53,2.75,0,4.08,1.79,4.51,4.54,8.38,9.05,10.53,2.81,1.34,4.64,4.6,5.49,7.45,1.06,3.57,2.22,10.08-.98,12.69-1.91,1.56-4.67,1.04-6.89.19-3.32-1.28-8.06-2.26-10.38.98-1.34,1.88-1.39,4.55-.81,6.8,1.49,5.79,8.29,10.05,13.97,10.33,2.82.13,3.33-4.42,1.71-4.43-1.95,0-4.33-.57-6.11-1.44-2.6-1.26-4.37-3.35-4.34-6.3,0-.58.19-1.15.59-1.57.62-.63,1.52-.67,2.36-.42,1.32.39,2.6,1.48,3.55,2.44.59.6,1.26,1.1,2.01,1.46,3.61,1.73,7.26-.38,9.71-2.79,4.91-4.84,7.08-10.95,7.23-17.92.14-6.56-1.81-14.13-5.41-19.85Z"/>
      <path class="cls-5" d="M137.97,145.89c.86,2.87,1.49,6.35,1.24,9.57,1.15-2.69,1.69-5.64,1.76-8.83.12-5.68-1.17-11.07-4.28-15.29-1.14-1.81-2.19.48-2.36,1.38-2.78,7.06.3,1.94,3.65,13.18Z"/>
      <path class="cls-9" d="M134.68,126.5c-.26.45-.15,1.12.91,2,2.39,2,2.91,2.9,4.23,5.84.46,1.02,1.97,5.65,2.49,5.58.84-.13-1.01-8.7-3.9-12.4-1.26-1.62-3-2.26-3.74-1.01Z"/>
      <path class="cls-9" d="M133.19,163.17c-1.58.36-2.52.24-4.46-.22-1.97-.47-.33,2.77,2.9,2.58,3.37-.2,5.94-3.5,4.16-3.38-.12-.1-2.14.92-2.6,1.02Z"/>
      <path class="cls-9" d="M119.94,170.08c0-.13-.38-.78-.45-.92-.31-.57-.6-1.15-.81-1.77-.58-1.74-.87-4.32,1.09-5.15,1.62-.69.07-2.16-1.15-1.64-2.54,1.08-1.72,5.05-.78,7.13.19.42,1.57,2.61,2.1,2.35Z"/>
      <path class="cls-11" d="M129.55,177.66c-.99-.23-1.07-1.76-.61-3.06.39-1.1,1.21-2.02,1.7-2.04,2.03.01,1.63,4.62-1.09,5.09Z"/>
      <g id="Rauch">
        <path class="cls-10" d="M70.74,120.3c-1.22-12.44-1.81-17.52-8.92-24.75-8.32-8.44-3.84-14.92-6.9-18.06-9.04-9.31,2.7-17.94,1.11-28.45-1.63-10.72-12.67-9.79-8.4-25.74,2.3-8.59,36.96-16.59,43.7,12.07,3.33,14.14,10.32,26.16-2.6,33.36-26.81,14.93,21.39,29.31-9.72,38.72-7.5,2.27-.3,10.37-.22,11.14,0,.05,0,.22-.03.45-1.16.15-2.33.32-3.52.5-1.53.23-3.03.48-4.49.74Z"/>
        <path class="cls-7" d="M65.58,121.32c-8.83-3.09-13.64-12.81-5.78-17.98,5.71-3.76,12.77-7.43,12.81-16.01.08-15.18-33.21-9.37-36.18-24.61-1.8-9.27,15.66-16.52,18.01-23.65,3.69-11.18,18.28-19.8,22.3-10.42,2.6,6.07,23.23,14.86,23.12,25.96-.06,5.73-6.41,8.32-13.38,11.29-5.47,2.33-10.72,7.04-4.42,17.28,1.99,3.23,5.45,8.01,3.7,11.58-1.2,2.46-7.26,3.42-12.44,5.58-4.18,1.75-10.13,6.36-8.98,11.45.82,3.64,6.23,6.22,9.21,8.04-2.79.45-5.47.96-7.99,1.5Z"/>
        <path class="cls-7" d="M70.34,120.37c-.94-5.14-5.69-7.94-9.37-11.06-3.75-3.18-6.41-6.64-3.63-8.45,23.12-15.05-5.68-15.22-12.93-19.25-21.35-11.84,3.59-19.75,19.4-27.12,15.49-7.22,19.64-21.19,1.48-19.21-23,2.51-31.69-6.49-20.04-21.14,2.47-.49,25.37-23.15,41.97-10.09,4.46,3.51-.72,12.3-7.53,16.38-11.56,6.92,20.65,3.96,25.34,6.83,4.05,2.47,12,2.55,10.72,12.65-2.5,19.71-44.88,15.69-46.92,25.71-1.72,8.43,37.25,1.19,20.42,14.53-1.67,1.33-22.33,9.77-5.46,15.06,7.03,2.2,4.18,5.55.89,10.42-2.39,3.54-5.03,7.9-4.27,13.22-1.69.2-3.42.44-5.18.7-1.67.25-3.3.53-4.89.82Z"/>
      </g>
      <g id="Ebene_12">
        <path class="cls-8" d="M115.34,121.27c-6.78,3.47-24.89,5.95-46.18,5.95s-39.41-2.48-46.18-5.95c6.78-3.47,24.89-5.95,46.18-5.95s39.41,2.48,46.18,5.95Z"/>
      </g>
    </g>
  </g>
</svg>