<?xml version="1.0" encoding="UTF-8"?>
<svg xmlns="http://www.w3.org/2000/svg" version="1.1" viewBox="0 0 258.01 258.01">
  <defs>
    <style>
      .cls-1 {
        fill: #fff;
      }
    </style>
  </defs>
  <!-- Generator: Adobe Illustrator 28.7.1, SVG Export Plug-In . SVG Version: 1.2.0 Build 142)  -->
  <g>
    <g id="Ebene_1">
      <path class="cls-1" d="M258.01,57.44v143.14c0,31.72-25.72,57.44-57.44,57.44h-22.72v-100.14h33.29l4.51-38.64h-37.8v-25.3s-.74-7.83,3.47-12.93c4.21-5.1,11.73-5.47,11.73-5.47h24.41v-35.5s-42.5-8.49-63.61,9.11c-19.47,16.23-17.06,44.79-17.06,44.79v25.3h-33.37v38.64h33.37v100.14H57.43C25.71,258.02,0,232.3,0,200.58V57.44C0,25.72,25.71,0,57.43,0h143.14c31.72,0,57.44,25.72,57.44,57.44Z"/>
    </g>
  </g>
</svg>