<?xml version="1.0" encoding="UTF-8"?>
<svg xmlns="http://www.w3.org/2000/svg" version="1.1" viewBox="0 0 257.21 258.01">
  <defs>
    <style>
      .cls-1 {
        fill: #fff;
      }
    </style>
  </defs>
  <!-- Generator: Adobe Illustrator 28.7.1, SVG Export Plug-In . SVG Version: 1.2.0 Build 142)  -->
  <g>
    <g id="Ebene_1">
      <g>
        <path class="cls-1" d="M160.98,129.64c0,17.5-14.18,31.69-31.68,31.69s-31.69-14.19-31.69-31.69,14.19-31.68,31.69-31.68,31.68,14.18,31.68,31.68Z"/>
        <path class="cls-1" d="M171.68,52.01h-84.76c-19.47,0-35.26,15.78-35.26,35.25v84.76c0,19.47,15.79,35.26,35.26,35.26h84.76c19.47,0,35.25-15.79,35.25-35.26v-84.76c0-19.47-15.78-35.25-35.25-35.25ZM129.3,179.18c-27.36,0-49.54-22.18-49.54-49.54s22.18-49.53,49.54-49.53,49.53,22.18,49.53,49.53-22.18,49.54-49.53,49.54ZM179.83,90.35c-6.48,0-11.73-5.25-11.73-11.72s5.25-11.73,11.73-11.73,11.72,5.25,11.72,11.73-5.25,11.72-11.72,11.72Z"/>
        <path class="cls-1" d="M200.04,0H57.16C25.59,0,0,25.6,0,57.17v143.68c0,31.57,25.59,57.17,57.16,57.17h142.88c31.57,0,57.17-25.6,57.17-57.17V57.17C257.21,25.6,231.61,0,200.04,0ZM225.11,169.79c0,30.74-24.92,55.67-55.67,55.67h-80.29c-30.74,0-55.67-24.93-55.67-55.67v-80.29c0-30.75,24.93-55.67,55.67-55.67h80.29c30.75,0,55.67,24.92,55.67,55.67v80.29Z"/>
      </g>
    </g>
  </g>
</svg>