<?xml version="1.0" encoding="UTF-8"?>
<svg xmlns="http://www.w3.org/2000/svg" version="1.1" viewBox="0 0 258.01 258.01">
  <defs>
    <style>
      .cls-1 {
        fill: #fff;
      }
    </style>
  </defs>
  <!-- Generator: Adobe Illustrator 28.7.1, SVG Export Plug-In . SVG Version: 1.2.0 Build 142)  -->
  <g>
    <g id="Ebene_1">
      <path class="cls-1" d="M199.83,0H58.17C26.04,0,0,26.05,0,58.18v141.66c0,32.13,26.04,58.18,58.17,58.18h141.66c32.13,0,58.18-26.05,58.18-58.18V58.18C258.01,26.05,231.96,0,199.83,0ZM75.37,219.78h-38.45v-122.93h38.45v122.93ZM56.29,80.12c-12.48,0-22.6-10.12-22.6-22.6s10.12-22.61,22.6-22.61,22.6,10.12,22.6,22.61-10.12,22.6-22.6,22.6ZM219.16,220.34h-38.19v-68.02s1.62-24.75-20.45-24.75-22.65,24.75-22.65,24.75v68.02h-38.24v-123.49h37.51l.21,15.71c3.13-4.17,13.44-16.41,27.87-18.27,17.44-2.24,35.13,2.56,41.39,10.11,6.25,7.54,12.55,18.29,12.55,44.11v71.83Z"/>
    </g>
  </g>
</svg>