<?xml version="1.0" encoding="UTF-8"?>
<svg xmlns="http://www.w3.org/2000/svg" version="1.1" viewBox="0 0 396.76 60.12">
  <defs>
    <style>
      .cls-1 {
        fill: #fff;
      }

      .cls-2 {
        fill: #ef0b74;
        fill-rule: evenodd;
      }
    </style>
  </defs>
  <!-- Generator: Adobe Illustrator 28.7.1, SVG Export Plug-In . SVG Version: 1.2.0 Build 142)  -->
  <g>
    <g id="Ebene_1">
      <g>
        <path class="cls-1" d="M225.37,38.74c-.48-.06-1.08-.18-1.62-.42l-.66-.18c-.54-.18-1.02-.36-1.44-.72-.54-.42-.9-.9-.96-1.44,0-.42-.12-.66-.12-.9q-.06-.06-.06-.12v-.6c0-.18,0-.36.06-.6-.06-.12-.12-.24-.12-.3s.06-.12.06-.18c0-.12.06-.36.06-.54.12-.06.12-.12.12-.18l.18-1.26c0-.24.06-.42.12-.66,0-.3.06-.54.06-.72.18-.66.42-1.38.66-1.92.12-.48.36-.84.42-1.32.12-.12.12-.24.18-.42,0,0,0-.06.06-.12.42-.66.78-1.38,1.14-1.98.36-.42.72-.96,1.02-1.38l.48-.36c.18-.18.42-.24.72-.24.18,0,.36.06.48.12h.3c.18,0,.3.06.54.18,0,0,.06.06.18.12.06.06.06.18.06.3v.12c-.36.3-.48.72-.72,1.02-.3.78-.78,1.56-1.08,2.22-.18.36-.24.9-.42,1.26-.18.72-.42,1.5-.72,2.16,0,.3-.06.6-.06,1.02-.18.54-.18,1.08-.36,1.68l-.18,2.04c-.06.12-.06.18-.06.3s0,.18.06.3v.42c0,.3,0,.6.18.9,0,.24.18.48.24.66l.24.18c.18.12.36.24.48.24s.24,0,.42-.18c.18-.12.42-.24.6-.42.6-.72,1.14-1.56,1.5-2.4l.66-1.44c.18-.42.42-1.02.48-1.56.06-.3.18-.54.24-.9v-.3c0-.12-.06-.18-.3-.24-.42-.12-.78-.42-1.14-.6l-.3-.24c-.18-.06-.3-.3-.3-.48,0-.06,0-.18.06-.24v-.18c.12-.66.72-1.08,1.5-1.38.24-.12.54-.12.84-.12.24,0,.3.06.36.06.24,0,.36.06.54.12.42.24.54.48.6.78.06.3.12.48.24.72-.06.06-.06.18-.06.24v.12c0,.18.06.18.24.18.72-.18,1.38-.3,2.1-.42.54-.12,1.02-.3,1.44-.54.48-.18.78-.36,1.14-.54l.48-.36c.06-.12.18-.18.36-.18h.18q0,.06.06.06h.12c0,.12.06.12.06.12.06,0,.06-.12.12-.12h.12c.06,0,.12.12.12.18v.12s0,.06.12.06l.06-.06c.06-.06.12-.06.18-.06s.12.06.12.12-.06.06-.06.12c-.12.06-.12.12-.12.18-.12.06-.18.12-.24.24-.36.36-.84.66-1.44.96-.54.36-1.2.6-1.8.78-.78.18-1.5.36-2.22.36-.24.06-.6.06-.84.06-.3.06-.36.06-.36.36-.18.72-.18,1.38-.54,2.1-.18.78-.36,1.5-.66,2.22-.36.72-.6,1.44-1.08,2.1-.18.3-.48.6-.66.96-.48.54-1.38.96-2.28.96h-.18ZM224.17,24.7c-1.08,1.56-1.56,3.18-1.98,4.8-.18.36-.18.66-.24,1.08-.12.42-.18.9-.24,1.32-.06.18-.12.42-.12.54v.78l.12-.24v-.54c.12-.36.12-.6.18-.84v-.48c.18-.54.3-1.2.48-1.8.18-.84.48-1.62.84-2.46.18-.72.66-1.62,1.2-2.34,0-.12.06-.24.06-.36v-.06c0,.06-.06.06-.06.12-.12.18-.24.3-.24.48ZM225.61,22.96c-.3.3-.6.78-.78,1.14-.96,1.5-1.56,3.12-2.04,4.74-.06.48-.24.96-.42,1.44-.18.66-.18,1.2-.3,1.68-.06.54-.06.9-.18,1.38v.24l.06.06v-.06c.12-.3.18-.72.18-1.02.18-.54.24-.96.3-1.44.18-.96.42-1.86.78-2.82.18-.9.66-1.92,1.08-2.76.54-.84.84-1.62,1.38-2.4.06-.06.12-.18.12-.24,0,0-.06,0-.06-.06l-.12.12ZM224.47,24.1c.12-.12.42-.3.42-.48-.24.12-.42.3-.42.48ZM226.33,23.08c-.06.12-.12.24-.24.36-.54.72-.96,1.5-1.26,2.34v.06q0,.06.06.06v-.06c.48-.96.9-1.74,1.5-2.58q.12-.06.12-.12l-.18-.06ZM227.53,36.03c.24-.18.3-.3.36-.54.78-1.08,1.14-2.4,1.56-3.6.06-.12.06-.18.06-.3v-.06l-.12.06c-.18.36-.3.84-.36,1.2-.36.9-.72,1.86-1.26,2.7l-.24.54ZM228.19,27.82h-.18c-.24.54-.18.54-.06.54l.24-.54ZM228.07,34.41c-.06,0-.06.12-.06.18q.06-.06.06-.18ZM228.07,34.36c.24-.12.3-.36.3-.6-.18.24-.3.42-.3.6ZM228.25,36.15c.12-.12.12-.18.24-.36.36-.66.66-1.38.9-2.1v-.18h-.06l-.36.78c-.18.54-.48,1.14-.78,1.86.06,0,.06.06.06,0ZM228.37,33.75c.12-.06.12-.18.12-.24-.12.06-.06.18-.12.24ZM228.55,33.4q-.06.06-.06.12c.18-.12.18-.24.18-.36-.12.06-.12.18-.12.24ZM228.79,32.79c-.06.06-.12.12-.12.18v.18c0-.06.06-.06.12-.12v-.24ZM228.85,32.44c-.06.06-.06.12-.06.18v.18c0-.06.06-.06.06-.12v-.24ZM228.97,32.07h-.06c0,.18-.06.24-.06.36.06-.12.12-.18.12-.3v-.06Z"/>
        <path class="cls-1" d="M254.95,29.92v.06c-.06.42-.18.54-.42.84-1.68,1.86-3.66,5.76-6.12,6.78-.6.24-.96.36-1.32.36-.42,0-.84-.18-1.5-.54-.18-.06-.24-.18-.3-.18-.48-.42-.84-.78-1.02-1.38-.06-.36-.12-.72-.12-1.14v-1.2c0-.18,0-.42.06-.6,0-.78.12-1.62.3-2.4.18-1.26.36-2.4.72-3.48.06-.48.18-.84.3-1.32q.06-.06.06-.12c0-.06-.06-.06-.12-.06h-.06c-.06.06-.12.06-.12.12-.48.36-.84.78-1.2,1.26-.84.84-1.5,1.98-2.16,3-.6.84-1.2,1.74-1.68,2.7-.78,1.32-1.5,2.64-1.92,3.96-.24.66-.42,1.26-.54,1.86,0,.12,0,.3-.06.36-.06.18-.24.24-.42.24-.12,0-.24,0-.36-.12-.06-.06-.18-.12-.18-.12h-.12c-.24,0-.3-.18-.48-.36-.12-.06-.42-.12-.54-.24-.3-.12-.42-.36-.42-.54,0-.84.24-1.56.3-2.34.12-.24.12-.54.12-.9,0-.72.12-1.32.24-1.98v-.24c0-.96.3-1.8.3-2.88v-.3c0-.84.48-1.62.48-2.58,0-.12,0-.24.06-.3.12-.9.3-1.68.48-2.4.36-1.92.9-3.78,1.56-5.64.18-.9.42-1.8.84-2.58.18-.72.48-1.5.78-2.04.36-.72.54-1.44,1.02-2.16.42-.66.72-1.32,1.32-1.98.12-.18.42-.42.6-.54s.3-.18.48-.18c.12,0,.18.06.3.06.36.12.72.24,1.08.54.24.18.48.54.48.78,0,.3-.06.48-.24.78-.24.84-.6,1.68-.96,2.58-.66,1.5-1.2,2.94-1.74,4.56-.54,1.08-1.02,2.22-1.5,3.42-.12.42-.3.72-.42,1.02-.24.6-.36,1.2-.48,1.8-.12.72-.36,1.5-.48,2.22-.18,1.14-.48,2.28-.6,3.36,0,.18-.12.42-.12.54v.42s0,.06.06.06.18,0,.18-.06l.12-.12c.9-1.44,1.86-2.82,2.94-4.08.78-.96,1.68-1.92,2.64-2.64.12-.06.24-.18.36-.3s.36-.12.54-.12c1.02.12,1.8.48,1.92,1.56,0,.18.06.36.06.6s-.06.48-.06.72c-.3,1.32-.54,2.52-.72,3.72l-.24,1.8-.12,2.04c-.12.72-.12,1.5-.12,2.34,0,.06,0,.24.06.24,0,.12.12.12.18.12.42-.18.84-.48,1.26-.72.66-.54,1.56-1.44,2.52-2.4.66-.78,1.44-1.56,2.1-2.46.18-.3.6-.72.9-1.2.12-.06.24-.12.36-.12h.06v.24c0,.06,0,.12-.06.18-.54.6-.78,1.02-1.08,1.32,0,.12-.06.18-.12.36.12-.12.36-.24.48-.42.6-.6.84-.9,1.08-1.5,0-.06.18-.24.24-.24v.06q0,.06.06.06t.12.06h.06q.06.06.06.12ZM238.87,32.67c0,.9.96-1.2,1.26-1.68.06-.12.06-.18.06-.24.12-.06.18-.18.24-.24.18-.24.42-.48.48-.9.12-.06.12-.18.18-.3.24-.12.48-.36.48-.54h-.18c-.06,0-.12-.06-.12-.06-.06,0-.06.06-.06.06v.12c0,.06-.06.06-.18.12v.24q-.06,0-.12.06c-.06,0-.06-.06-.06-.06l-.06.06c-.12.06-.18.18-.18.3l-.06.06c.06,0,.06.06.06.06l-.12.3c0,.12-.06.18-.12.18h-.18c-.06.12-.06.24-.12.3-.06.06-.12.18-.18.18,0,.06-.06.06-.06.06,0,.06.06.12.06.12-.36.48-.72,1.2-1.02,1.8ZM243.79,11.5c.06,0,.3-.48.3-.72,0-.06-.06-.12-.12-.12h-.12c-.48.18-3.72,10.5-3.66,10.44.06-.06,3.54-9.6,3.6-9.6ZM242.05,28.12h-.12c-.06,0-.06-.06-.12-.06s-.12.06-.12.06h-.06l.06.06c-.06.12-.12.24-.12.36v.24c.3-.18.48-.36.48-.66ZM242.29,27.69h-.18v-.06l-.06.06v.42c.12-.06.24-.3.24-.42ZM242.35,27.52c-.06.06-.06.12-.06.18.24-.06.3-.18.36-.3-.12,0-.3,0-.3.12ZM242.89,26.98l-.24.12v.3c.06-.06.24-.24.24-.42ZM242.89,26.98c.24-.06.24-.24.3-.42h-.12c-.06,0-.12-.06-.12-.06-.06,0-.06.06-.06.06h-.06c0,.06.06.12.06.12v.3ZM243.19,26.56c.24-.06.3-.18.3-.36-.24.06-.3.18-.3.36ZM243.37,27.1c-.06.06-.12.06-.12.12,0-.06.06-.06.12-.12ZM243.67,26.74c-.18.06-.24.24-.3.36.18-.06.3-.18.3-.36ZM243.73,26.08c.06-.12.18-.24.18-.42-.18.06-.18.18-.18.42ZM244.15,25.54c.3-.18.48-.36.6-.6-.3.06-.54.3-.6.6ZM244.81,24.82q-.06.06-.06.12l.06-.12ZM251.65,33.03c-.24.24-.3.42-.48.66.3-.3.42-.42.48-.66ZM252.13,32.74c-.24.12-.48.18-.48.3.3,0,.42-.12.48-.3ZM252.61,32.07c-.24.18-.3.42-.48.66.3-.3.42-.42.48-.66ZM252.85,31.78c-.18.18-.24.24-.24.3.12,0,.24-.18.24-.3Z"/>
        <path class="cls-1" d="M276.55,26.74l-.06.06c0,.24-.06.3-.18.42-.48.42-.9.9-1.32,1.56-.42.54-.84,1.02-1.14,1.68-.66,1.08-1.26,2.22-2.1,3.42-1.08,1.8-2.34,3.42-3.3,5.1-.54,0-1.08.78-1.5,1.44-.54.24-.9.42-1.14.66-.18.12-.42.24-.6.24-.24,0-.48-.12-.72-.36-.48-.12-.36,0-.66-.24-.06-.18-.3-.36-.48-.54-.3-.36-.6-.9-.72-1.26-.12-.66-.18-1.26-.18-1.92.06-.9.24-1.74.36-2.7l.66-2.88c0-.42.24-.72.3-1.08l.24-.72c.24-.9.6-1.8.9-2.7l.78-2.16v-.18h-.12c-.06.12-.12.12-.18.12-.36.3-.66.6-1.08.9-.48.6-1.02,1.14-1.56,1.86-.54.78-1.08,1.44-1.56,2.28-1.08,1.86-2.28,4.02-3.6,5.88-.18.3-.42.54-.66.72-.24.24-.54.36-.78.36-.18,0-.36,0-.54-.12-.3-.18-.6-.36-.84-.72-.18-.18-.36-.24-.48-.48-.18-.36-.42-.66-.54-1.08-.18-.54-.24-1.08-.24-1.62,0-.3.06-.54.06-.84s.06-.6.06-.9c0-.18-.06-.36-.06-.48s-.06-.24-.06-.42c0-1.2.6-2.94,1.02-4.26.18-.54.42-1.14.72-1.68.06-.18.12-.36.24-.48l.24-.42c.24-.3.42-.36.6-.36.12,0,.18,0,.3.06.12,0,.18.06.18.12s0,.12-.06.18c0,.06.06.06.06.06v.12q0-.06.06-.12c.06,0,.24-.12.36-.18h.12v.06c-.06.06-.18.24-.18.36,0,.06.06.06.12.12l.3-.18c.06-.12.06-.18.12-.18l.12-.12.06.06v.24h.12c.06,0,.12.06.12.12s-.06.18-.06.24c-.12.18-.18.36-.24.54q0,.06.06.12h.06c.06-.18.18-.36.3-.48.06-.06.18-.06.18-.06.18,0,.18.06.18.18v.6c0,.12-.06.24-.12.42-.54,1.14-.9,2.4-1.14,3.54-.18.6-.24,1.26-.3,2.04-.12.54-.3,1.02-.36,1.62-.06.24-.06.42-.06.66,0,.12,0,.24.06.3.12,0,.18-.06.3-.12.06-.18.18-.24.24-.36.54-.72,1.08-1.62,1.62-2.4.6-.96,1.14-1.8,1.8-2.64.78-1.02,1.56-2.04,2.52-2.88l1.62-1.56c.18-.18.42-.3.6-.42.18-.12.36-.18.54-.18.12,0,.24,0,.3.06h.24c.42,0,.84.12,1.2.48.24.24.42.6.42,1.08-.06.42-.12.84-.12,1.32-.18,1.26-.42,2.46-.78,3.6-.24.9-.48,1.62-.66,2.46-.18.72-.48,1.62-.6,2.34-.24.9-.42,1.8-.6,2.82-.18.6-.18,1.26-.24,1.98v.24s0,.06.06.06c0,0,.06-.06.12-.06.24-.12.36-.12.48-.12.48,0,.72-.48,1.02-.72.84-1.14,1.8-2.22,2.46-3.42,1.32-1.8,2.58-3.6,3.66-5.46.6-.54.96-1.32,1.5-1.92.48-.3.78-.78,1.14-1.2.06-.06.18-.12.24-.12s.06.06.12.06c.12.12.18.24.3.24h.06v.3h.06q.06,0,.12-.06h.06l.06.06ZM256.81,34.71v-.12c0,.06-.06.12-.06.12h.06ZM256.81,34.53l.18-.12c.18-.18.42-.36.54-.54.84-1.02,1.5-2.16,2.1-3.18.6-1.02,1.26-1.92,1.86-2.88l.12-.24c-.24.06-.36.24-.48.48-.24.42-.54.84-.9,1.26l-.24.36c-.06.06-.06.18-.12.18-.72,1.26-1.44,2.52-2.28,3.6-.3.42-.54.6-.66.9l-.12.18ZM260.83,29.56c-.36.3-.66.84-.9,1.38-.18.12-.3.24-.3.42l-.12.12c-.66,1.2-1.56,2.46-2.28,3.54l-.24.3c.42-.12.54-.36.72-.66.42-.72,1.14-1.62,1.62-2.46.18-.18.24-.54.36-.78.12-.12.24-.24.3-.36.24-.42.54-.78.72-1.14.06-.12.12-.24.12-.36ZM262.09,27.64c-.24.06-.3.24-.42.54-.12.12-.3.3-.3.54-.18.06-.24.24-.36.42-.06.06-.18.24-.18.42.12-.12.18-.24.24-.42.12-.06.3-.18.3-.36.18-.12.3-.36.36-.6.18-.18.36-.36.36-.54ZM261.73,27.34c.18-.06.3-.24.42-.48-.24.12-.42.3-.42.48ZM262.69,26.8c-.24.18-.36.36-.36.54.12-.18.3-.3.36-.54ZM269.11,37.11c-.36.12-.48.3-.54.6-.18.12-.3.36-.36.6-.3.18-.54.66-.9.66-.18,0-.3.18-.36.36l-.24.36h.06l.66-.72c.36,0,.66-.12.78-.6.24-.12.3-.42.42-.66.24-.12.3-.36.48-.6ZM266.95,38.97c.24,0,.42-.12.6-.42.78-.96,1.5-1.98,2.28-3.06l2.1-3.18c.18-.42.36-.9.66-1.14.24-.36.48-.78.66-1.2.18-.18.36-.48.54-.78.42-.36.66-.72.84-1.08.12-.06.18-.18.18-.36-.12.06-.18.18-.24.3-.06.12-.12.12-.3.18l-.36.66c0,.06-.12.18-.12.24-.06,0-.12,0-.12.06l-.24.36h-.06c-.06.06-.12.12-.12.18s0,.12-.06.18h-.12l-.06-.06-.06.06h-.06c.06.06.06.12.06.12-.06.06-.06.24-.12.3h.06l-.18.3c-.06.06-.12.18-.18.18,0,0-.06,0-.12-.06-.06.06-.06.12-.06.18v.12l-.06.12h.06c-.18.18-.24.24-.24.3-.06.06-.12.18-.12.24,0,.12-.06.18-.18.36v-.06l-.06.06c-.06.06-.12.18-.12.24,0,0-.06,0-.06.06,0,0,.06,0,.06.06l-.18.24c0,.06,0,.24-.12.3-.12.12-.12.18-.18.3l-.06-.06s-.06,0-.06.06-.12.12-.18.12l-.06.06v.12c0,.12-.06.18-.12.18l-.18.3-.12-.12v.06c0,.12-.06.18-.12.24,0,.12-.06.18-.18.3q-.06.06-.06.12c0,.06-.12.18-.18.24h-.06l-.18.24c-.06.12-.06.3-.12.36l-.06.06.06.06c-.06.12-.06.18-.18.24,0-.06-.06-.06-.06-.06,0,0-.06,0-.06.06-.06.06-.12.12-.12.24h.12c-.12.12-.24.24-.42.3v-.06l-.06.06c0,.12-.06.24-.06.3s-.06.06-.06.06l.06.06c-.06.12-.18.18-.24.24-.12.18-.18.36-.36.36,0,.12-.12.24-.3.3,0,.3-.24.54-.48.84-.06.24-.18.42-.3.42ZM269.53,36.45c-.24.12-.3.36-.42.66.3-.12.42-.36.42-.66ZM269.71,36.21c-.06,0-.06.12-.12.18.06,0,.12-.12.12-.18ZM270.19,35.55c-.24.18-.3.36-.42.66.24-.12.36-.36.42-.66ZM270.25,35.43v-.12c-.06.06-.06.12-.06.24q.06-.06.06-.12ZM270.43,35.01c-.06.06-.18.18-.18.3.06-.12.18-.18.18-.3ZM270.97,34.53c-.3.12-.42.24-.54.48.24,0,.36-.18.54-.48ZM271.09,34.36c-.06,0-.12.12-.12.18.06,0,.12-.12.12-.18ZM271.21,34.05c-.06.06-.12.12-.12.24.12-.06.12-.12.12-.24ZM271.45,33.75c-.12.06-.24.18-.24.3l.24-.3ZM271.51,33.57c-.06.06-.06.12-.06.18q.06-.06.06-.18ZM271.63,33.4c-.06,0-.12.06-.12.06q.06,0,.12-.06ZM271.87,33.09c-.12.06-.18.18-.24.3.12,0,.24-.18.24-.3ZM272.65,31.71h-.06v.06s.06,0,.06-.06ZM272.83,31.36c-.12.12-.18.18-.18.36.12-.06.18-.18.18-.36ZM273.67,30.04c-.12.06-.24.18-.24.42.12-.06.24-.24.24-.42ZM273.79,29.8c-.12.06-.12.12-.12.24.06-.06.12-.12.12-.24ZM274.27,29.19c-.12,0-.18.12-.3.3l.3-.3ZM274.51,28.9l-.18.24c.12-.06.18-.12.18-.24ZM274.75,28.54c-.12,0-.18.18-.18.36.12-.06.18-.12.18-.36ZM274.99,28.24c-.18.12-.18.18-.24.3.12-.12.24-.24.24-.3Z"/>
        <path class="cls-1" d="M288.49,28.72c0,2.64-2.82,4.68-2.82,5.04,0,.06.06.06.12.06h.06c-.84,1.14-2.04,2.46-2.88,3.36-1.08,1.08-2.4,1.98-3.9,2.4-.54.12-1.02.24-1.56.24-.78,0-1.5-.18-2.16-.66-.84-.6-1.68-1.2-2.16-2.1-.24-.42-.36-.84-.42-1.32-.06-.3-.06-.66-.06-1.02s0-.66.06-1.02v-1.44c.12-.72.3-1.38.48-2.04v-.36c0-.06.06-.12.06-.18s-.06-.18-.06-.24-.06-.06-.06-.12l.18-.24c.18-.12.3-.3.42-.48.36-.72.66-1.5,1.08-2.22.54-.9,1.14-1.74,1.86-2.52.48-.6,1.02-1.08,1.68-1.5.3-.24.66-.42,1.08-.48.3-.06.6-.06.84-.06.66,0,1.32.12,1.98.48.72.42,1.14,1.02,1.14,1.86v.18c-.06.66-.24,1.2-.54,1.8-.48.96-1.02,1.86-1.92,2.52-1.02.78-2.1,1.38-3.24,1.68l-.66.18c-.3.06-.48.24-.6.54l-.6,4.62v.24c0,.42.12.84.24,1.26.06.36.3.54.72.54h.48c1.08-.24,2.22-.6,3.18-1.26s1.86-1.38,2.7-2.28c.48-.48,1.56-1.26,2.1-1.86.72-.9,1.38-1.68,1.98-2.58.36-.6.78-1.32,1.08-1.92.06.3.12.6.12.9ZM275.11,28c.06,0,.06-.06.12-.12-.06,0-.06.06-.12.06v.06ZM275.59,27.04c-.18.18-.3.42-.36.78.24-.18.36-.48.36-.78ZM278.53,23.92v-.24l-.18.12c-.18.18-.42.36-.6.6-.72.84-1.32,1.86-1.86,2.88-.18.36-.3.72-.42,1.2l.3-.42c.12-.18.24-.48.42-.66.66-1.2,1.38-2.4,2.34-3.48ZM275.59,27.04c.18-.06.24-.18.24-.3-.18.06-.18.18-.24.3ZM275.83,26.74c.24-.24.48-.6.6-.96.06-.06.12-.18.12-.3-.12.06-.18.18-.18.3-.36.24-.48.54-.54.96ZM276.55,25.48c.24-.06.36-.24.36-.48-.18.12-.3.24-.36.48ZM277.15,24.7c-.18.06-.18.18-.18.3l.18-.3ZM277.45,26.62c.06-.06.06-.12.06-.18,0,.06-.06.06-.06.12v.06ZM277.75,26.14c-.06.06-.12.12-.18.3.18-.06.18-.18.18-.3ZM280.75,23.98c-.42.24-.72.6-1.08.9-.78.96-1.32,1.98-1.86,3.06-.06.06-.06.12-.06.18v.06c0,.06.06.12.18.12.3-.18.54-.24.78-.42.9-.72,1.68-1.5,2.16-2.52.24-.42.42-.84.48-1.32v-.06c0-.12-.12-.18-.24-.18h-.12l-.24.18ZM279.43,23.98c-.06,0-.12,0-.18.06-.6.6-1.2,1.26-1.5,2.1.12-.06.18-.12.24-.24.48-.6,1.02-1.2,1.44-1.8v-.12ZM281.23,25.96c-.06.12-.12.18-.12.3h.12c-.12.18-.18.42-.24.6-.06.12-.24.18-.3.3v.06c.06,0,.06.06.06,0,.12-.06.18-.18.3-.3.3-.24.48-.6.66-.9.12-.18.12-.36.18-.54-.24,0-.18.3-.36.36-.06.06-.12.06-.12.12q-.06,0-.06-.06v-.12c0,.06-.06.12-.12.18ZM284.77,34.41c-.12.06-.18.12-.18.3.12-.06.18-.12.18-.3ZM285.01,34.17c-.06.06-.18.12-.24.24.12-.06.18-.12.24-.24ZM285.25,33.21c-.24.18-.36.24-.42.54.24-.06.3-.24.42-.54ZM285.43,33.69c-.18.12-.36.24-.42.48.24-.12.3-.24.42-.48ZM285.73,32.67c-.24.12-.36.3-.48.54.24-.06.36-.24.48-.54ZM285.67,33.33c-.06.06-.12.12-.18.3l.18-.3ZM286.09,32.25c-.18.06-.3.18-.36.42.18-.06.36-.24.36-.42ZM286.81,31.3c-.3.24-.48.54-.72.9.36-.12.54-.48.72-.9ZM286.81,31.3c.12-.06.12-.18.18-.3h-.12l-.06.06v.24ZM286.99,31c.18-.06.24-.12.24-.3h-.18l-.06.3ZM287.23,30.57v.12c.24-.24.48-.48.48-.84-.24.24-.42.42-.48.72ZM287.95,29.67c0-.06-.06-.06-.12-.12v-.06h-.06l.06.06c0,.12,0,.18-.12.3.18-.06.24-.12.24-.18Z"/>
        <path class="cls-1" d="M320.11,42.57l-.3.42c.18-.06.42-.12.54-.24.12-.18.48-.42.6-.54.06-.06.12-.06.18-.06,0,.06.12.18.12.36l-.36.48-.6.54v.3h.06s.06,0,.06-.06l.72-.72c.24-.06.36-.18.6-.24,0,0,0-.06.06-.06l.06.06c.06,0,.06.06.06.12v.24c-.12.24-.3.6-.54.78-1.38,1.38-2.94,2.1-5.1,2.1-1.5,0-2.76-.3-3.96-.96-1.08-.54-1.98-1.2-2.88-1.98-2.7-1.92-4.86-4.32-6.72-6.9-.66-.96-1.2-1.92-1.68-2.88-.72-1.8-1.56-3.54-2.58-5.22-.18-.36-.54-.66-.72-.9-.18-.18-.48-.24-.66-.36s-.36-.12-.54-.12c-.42,0-.78.3-.84.72-.36,1.02-.54,2.04-.72,3-.24.84-.48,1.74-.6,2.52-.36,1.74-.6,3.54-1.02,5.28-.18,1.44-.48,2.94-.6,4.5-.24.78-.3,1.68-.42,2.58,0,.3,0,.48-.06.72-.06.36-.06.72-.06,1.08s0,.66.12,1.02v.24c-.06.18-.3.3-.48.3h-.12l-.36-.18c-.54-.36-1.02-.84-1.2-1.5-.36-.42-.36-1.08-.36-1.56.12-.42.12-.78.12-1.2.06-1.08.24-2.16.36-3.24.06-.6.12-1.14.24-1.68.24-1.5.48-3.06.78-4.44.18-1.44.54-2.7.72-4.14l.78-3.78c.12-.96.36-1.92.48-2.88.12-.84.48-1.68.6-2.58l1.32-5.46c.06-.6.18-1.26.48-1.86.06-.48.18-.9.3-1.32.54-1.68.96-3.48,1.5-5.16.24-.9.48-1.56.84-2.4,0-.18.18-.36.24-.48.18-.06.3-.12.36-.12.3.06.66.18.96.3.3.24.42.42.42.6,0,.36,0,.78-.06,1.02-.42,2.16-.84,4.14-1.32,6.24-.48,1.98-.96,4.14-1.38,6.18-.3,1.14-.6,2.46-.84,3.72-.06.3-.06.48-.06.72,0,.12.12.18.24.18.06-.06.12-.06.18-.06.6-.24,1.14-.54,1.74-.9.36-.12.72-.3,1.02-.48.36-.24.66-.36,1.02-.54.42-.24.84-.54,1.14-.78.54-.18.9-.42,1.44-.84.06-.06.12-.12.24-.12,1.02-.42,1.8-1.26,2.82-1.86.06-.06.12-.12.3-.18.6-.6,1.2-.96,1.8-1.5,1.68-1.38,3.42-2.58,4.86-4.14,1.02-.9,1.98-1.8,2.94-2.82.42-.36.84-.84,1.38-1.26.78-.96,1.68-2.04,2.52-3.18.96-1.26,1.92-2.46,2.7-3.9.06-.12.12-.24.3-.3.06-.18.24-.18.3-.18.18.24.3.3.42.42.24.12.24.3.3.42,0,.42-.06.78-.24,1.14-.3,1.26-1.08,2.4-1.74,3.66-1.26,1.92-2.82,3.78-4.44,5.46-1.02,1.08-2.04,2.1-3.18,3-1.32,1.2-2.7,2.4-4.26,3.48-1.14,1.02-2.52,1.86-3.84,2.82-.54.42-.9.72-1.56,1.02-1.62,1.08-3.36,2.04-5.22,2.94-.24.12-.6.3-.84.54-.06.06-.12.12-.12.18s.06.18.12.24c1.5,1.62,2.52,3.54,3.54,5.4.42,1.08,1.14,2.16,1.8,3.06.48.72.9,1.38,1.38,1.92.78,1.26,1.68,2.4,2.7,3.48.18.24.48.42.66.66.72.72,2.64,2.16,3.48,2.58.66.42,1.38.6,2.04.6.48,0,.96-.12,1.44-.24,1.02-.24,1.92-.66,2.58-1.26.36-.12.6-.3.84-.48.12-.06.24-.06.3-.06.12,0,.18.06.24.12.12.18.3.24.36.36l-.24.48ZM297.49,24.58v.06s0-.06.06-.06h-.06ZM298.75,23.98c-.48.06-.9.18-1.08.6.3-.06.78-.18,1.08-.6ZM298.87,24.7c-.12,0-.36.06-.42.24.12,0,.36-.06.42-.24ZM304.75,20.32c-.24.48-.78.36-1.08.84-.78.36-1.32.72-1.92,1.14-.24.12-.48.18-.66.36-.3.06-.78.24-1.02.6-.36.12-.84.24-1.02.48-.12.06-.24.06-.3.24.12,0,.24,0,.3-.18.48-.06.84-.18,1.14-.54.48-.06.72-.18.9-.54.42-.06.6-.12.78-.3.72-.24,1.32-.6,1.92-1.2.72-.3,1.74-1.08,2.52-1.56.3-.06.66-.42.96-.78-.6.12-2.34.84-2.52,1.44ZM299.53,24.4c-.36,0-.54.12-.66.3.3,0,.6-.06.66-.3ZM299.89,24.16c-.12,0-.3,0-.36.24.18,0,.3,0,.36-.24ZM300.31,23.98c-.12,0-.3.06-.42.18.18,0,.36-.06.42-.18ZM300.91,23.62c-.18,0-.48.12-.6.36.36,0,.54-.18.6-.36ZM301.57,23.26c-.18,0-.54.18-.66.36.36,0,.6-.12.66-.36ZM301.99,23.14c-.12,0-.3,0-.42.12.18,0,.36-.06.42-.12ZM302.65,22.72c-.36,0-.6.06-.66.42.18-.06.48-.18.66-.42ZM303.25,22.42c-.3,0-.48.06-.54.24.12,0,.36-.06.54-.24ZM305.53,20.86c.3,0,.48-.06.54-.3-.18.06-.36.12-.54.3ZM307.27,18.88c.54-.12.96-.54,1.2-.9-.6,0-.96.3-1.2.9ZM308.47,17.98c.06-.06.12-.06.12-.12-.06,0-.06.06-.12.12ZM308.89,17.56c.6-.12.9-.48,1.32-.84-.66-.18-.48-.06-1.32.84ZM313.51,13.9c.06,0,0-.06,0-.18h-.06c-.48.48-1.08.78-1.38,1.26.12-.06.24-.06.3-.12.42-.3.9-.6,1.14-.96ZM320.41,42.03c0-.06.06-.12.06-.12l.06-.06v.06l-.12.12Z"/>
        <path class="cls-1" d="M334.03,27.58c.18,0,.24.24.42.3.06,0,.06.12.06.18-.12.36-.18.72-.36,1.02-1.2,1.98-2.34,3.84-3.66,5.7-.48.72-1.14,1.5-1.68,2.34l-1.62,1.44c-.72.42-1.26.66-1.86.66-.42,0-.84-.12-1.32-.36-.9-.42-1.74-1.08-2.28-1.98-.36-.6-.54-1.26-.6-1.92,0-.3-.06-.66-.06-.96-.06-.18-.06-.36-.06-.48.18-1.98.54-4.02,1.08-5.94.12-.36.36-.78.36-1.2v-.12c-.42.12-.36.48-.48.84l-2.28,4.02c-.66,1.2-1.32,2.34-2.1,3.42-.42.6-.96,1.14-1.5,1.74-.3.42-.84.66-1.26.84-.12.06-.24.06-.36.06-.18,0-.42-.06-.66-.12-.66-.24-1.14-.84-1.74-1.38-.42-.3-.66-.84-.66-1.32,0-.12.06-.18.06-.3,0-.24-.06-.54-.06-.78,0-1.2.24-2.28.6-3.3.24-.96.66-1.92,1.02-2.82.6-1.14,1.26-2.16,2.04-3.18.12-.18.18-.36.3-.42.42-.6.9-.84,1.38-1.2.18-.12.3-.18.48-.18.12,0,.3-.06.48-.06.9,0,2.04.42,2.82,1.2.24.24.36.6.48.9,0,.06.06.18.06.3,0,.18-.06.3-.18.42-.06.06-.12.12-.18.12s-.18-.06-.3-.12l-.96-.72c-.12-.12-.18-.12-.24-.12s-.12,0-.18.06l-.72.66c-.54.6-.96,1.26-1.44,1.92-.84,1.56-1.44,3.18-1.98,4.86-.3.6-.42,1.32-.54,1.92-.06.18-.06.48-.06.66,0,.06.06.18.12.24h.06c.06,0,.12,0,.18-.06,1.02-.96,1.98-2.1,2.76-3.42,1.26-1.8,2.52-3.6,3.72-5.46.72-1.2,1.74-2.52,2.58-3.72l1.14-1.62c.18-.24.24-.36.36-.36.06,0,.24.06.42.12.24.12.6.24.78.36.24.24.42.48.42.78,0,.12-.06.24-.06.36l-.66,2.04c-.66,2.16-1.32,4.38-1.86,6.6-.18.96-.42,1.92-.54,3-.06.66-.12,1.26-.12,1.92,0,.48.06.9.06,1.38s.12.78.3,1.14c.18.3.48.42.78.42h.18c.18-.06.42-.06.6-.18.42-.42.9-.72,1.26-1.2,1.08-1.2,2.28-2.46,3.18-3.96.9-1.2,1.68-2.4,2.52-3.66.24-.3.36-.72.48-1.08l.42-.36c.06-.06.12-.06.18-.06s.12,0,.18.06c.12.06.06.12.12.18.06-.06.12-.06.18-.06ZM315.43,25.78l-.24.18c-.96,1.44-1.68,3.24-2.16,4.98-.06.18-.12.36-.12.54,0,.12,0,.18.06.3-.18.06-.24.24-.24.36,0,.06.06.12.06.18s-.06.06-.06.12c-.06,0,0,.06,0,.06,0-.06.06-.12.06-.18.18-.12.18-.36.18-.6.18-.06.18-.24.3-.54.48-1.62,1.08-3.18,1.92-4.62.12-.18.18-.54.3-.78.24-.06.36-.36.48-.66-.36.12-.54.3-.54.66ZM314.89,28.78c-.06.12-.12.24-.12.36.12-.06.12-.18.12-.36ZM315.01,28.6v-.18c-.12.12-.12.24-.12.36.12-.06.12-.12.12-.18ZM315.37,27.94c-.3.06-.36.24-.36.48.24-.12.3-.24.36-.48ZM315.49,27.58c-.12.06-.12.18-.12.36.12-.06.12-.24.12-.36ZM315.85,26.74c-.24.12-.36.36-.36.66v.18c.24-.18.36-.42.36-.84ZM315.85,26.74c.24-.12.3-.18.3-.36v-.18c.24-.06.36-.24.36-.48-.24.06-.3.24-.36.42-.18.12-.3.36-.3.6ZM316.21,24.58c-.12.06-.24.24-.24.42v.12c.12-.12.24-.24.24-.54ZM316.99,25.06c-.24.06-.36.18-.36.42.18-.06.36-.18.36-.42Z"/>
        <path class="cls-1" d="M359.77,29.38v.06c0,.36-.18.6-.42.9-.54.48-1.2.78-1.92,1.02-1.08.42-2.22.66-3.36.96l-2.82.48c-.12,0-.18.06-.24.06-.06.06-.12.06-.12.12s.06.06.06.12c0,.48.12.84.12,1.26l.12.84c.12.3.18.72.24,1.08,0,.12,0,.36.06.48.06.72.12,1.44.12,2.1,0,1.2-.12,2.4-.48,3.54l-.42,1.98-.72,1.62c-.18.3-.3.66-.6.9-.18.3-.54.54-.96.72h-.18c-.18,0-.36,0-.54-.06-.78-.36-1.38-.78-2.04-1.44l-.36-.72-.42-1.32c-.06-.96-.18-1.98-.18-2.94,0-.42,0-.84.06-1.2.06-2.88.36-5.82.78-8.64l.12-1.26.84-3.66c-1.14.42-3,.96-3.24,1.14-1.2.3-2.28.72-3.54.96h-.12c-.42,0-.84.24-1.38.3-.06.06-.06,0-.06.3q0,.24.06.36c.18,1.08.36,2.46.72,3.54.18,1.62.18,3.18.18,4.8.06.42.12.72.12,1.08,0,.3-.06.6-.12.9-.18,1.44-.48,2.88-.6,4.32-.3,1.2-.72,2.58-1.2,3.78-.18,1.08-.78,1.86-1.38,2.64-.06.3-.36.66-.66.78-.24.12-.48.3-.72.3-.12,0-.18-.06-.3-.12h-.48c-.42-.24-.96-.3-1.5-.54l-.42-.6c-.12-.06-.18-.42-.3-.72-.12-.48-.12-1.08-.24-1.86-.24-.54-.36-1.08-.36-1.68,0-.54,0-.96.18-1.32v-.3c0-.6-.06-1.2-.06-1.8v-.42c0-.6.06-1.5.06-1.98.06-1.08.24-2.22.36-3.6.12-.06.18-.06.18-.12s-.06-.06-.06-.12v-.42c.06-.36.12-.72.12-1.02,0-.18,0-.36-.06-.54.18-.24.18-.84.36-1.2,0-.12-.06-.18-.06-.3,0-.36.12-.78.24-.9,0-.36,0-.6.36-.72.24-1.92.36-4.08.72-5.82.3-.42.36-.96.54-1.5,0-.06.12-.06.12-.18.24-.36.24-.48.3-.72.3-1.08.48-2.04.84-2.88.6-1.44,1.02-2.64,1.38-3.84.24-.36.24-.54.36-.6.48-1.08.84-2.16,1.14-3.12.3-.66.66-1.32,1.02-1.8.18-.6.42-.96.78-1.08.06-.42.42-.48.6-.84.18,0,.24-.06.36-.06s.24.06.42.06c.18.24.54.3.6.42.36.3.54.36.54.72,0,.06.06.12.06.18,0,.12-.06.24-.18.42-.18.78-.24,1.62-.6,2.22-.48,1.74-1.08,3.12-1.86,4.62-.48.96-.9,1.98-1.62,3.06-.42,1.08-.78,2.04-1.14,3.18-.12,1.2-.42,2.22-.78,3.42,0,0,0,.06-.18.06l.18.06h.18c1.02-.42,1.44-.66,2.52-.9.78,0,1.74,0,2.16-.36.9-.42,1.8-.3,2.52-.48l3.3-.78c.06-.06.06-.18.12-.3v-.18l.18-.6c.3-.96.54-1.86.78-2.88l.6-2.22.24-.54c.12-.36.3-.66.36-1.02l.78-1.86c.48-.9.9-1.74,1.26-2.64.48-.84,1.08-1.62,1.5-2.34.36-.48.84-.84,1.32-1.2.18-.3.54-.36.84-.36.36,0,.78.06,1.26.24.6.24,1.02.72,1.26,1.44.06.3.12.6.12.84,0,.18,0,.36-.06.48-.12,1.26-.42,2.34-.66,3.54-.3,1.08-.6,2.04-1.08,3.18l-.72,1.98c-.96,2.04-1.74,3.96-2.88,5.7-.78,1.32-1.44,2.58-2.34,3.78-.36.48-.6,1.02-.96,1.5-.54.72-.78,1.56-.9,2.46-.3,2.4-.66,4.74-.84,7.08,0,.48-.06,1.02-.06,1.5,0,.96.06,1.92.24,2.94v.54c.12.12.24.24.36.24.06,0,.12,0,.18-.06.36-.36.66-.84.9-1.26.36-.66.66-1.38.96-2.04.12-.36.18-.72.18-1.08.48-1.08.54-2.16.6-3.36v-.3c0-.42-.06-.9-.12-1.38v-.18c-.12-1.14-.48-2.4-.84-3.54l-.12-.54c-.06-.06-.06-.18-.06-.24,0-.18.12-.36.36-.48l.66-.12c1.14-.18,2.52-.36,3.72-.66.66-.12,1.32-.36,1.98-.6.78-.3,1.98-1.02,3-1.02.24,0,.42.06.6.12h.12s.06,0,.06.06ZM333.19,34.17c.42-1.74.48-3.72,1.08-5.46v-.48s-.12.06-.12.36c-.24.54-.24,1.26-.54,1.86-.18.9-.36,1.68-.48,2.46-.3,0-.3.12-.3.12-.06,1.02-.36,1.92-.48,2.88-.3,1.5-.36,3.18-.42,4.32-.12.6-.18,1.2-.18,1.8,0,.42,0,.84.06,1.32v.36c-.06.3-.06.54-.06.78,0,.3,0,.6.06.9h.06q0-.3-.06-.36c0-.6,0-1.02.12-1.38v-.42c-.06-.18-.12-.42-.12-.72s.06-.6.18-.9v-.42c0-.6.06-1.2.06-1.74.12-.9.18-1.8.36-3,.42-1.08.42-1.92.42-3l.3-.42c-.12.9-.24,1.8-.24,2.76v.6c-.3,1.2-.48,2.34-.6,3.54-.18.66-.18,1.44-.18,2.1,0,.36.06.9.06,1.32v.3c0,.54,0,1.02.06,1.68v-.18c0-.3,0-.6.06-.96v-.42c0-.54-.06-1.02-.12-1.44.12-.96.3-1.86.48-2.94.24-1.8.3-3.54.54-5.22ZM332.89,32.44c0,.12.06.3.24.48-.06-.36-.06-.78-.06-.9-.06.06-.18.24-.18.42ZM333.07,31.95l.18-.3c.06-.36,0-.78.3-1.38-.06,0-.06-.18-.06-.24-.06.06-.12.18-.3.18v.3c0,.24-.06.54-.12.84v.6ZM333.49,29.38h.06v-.24h-.06v.24ZM333.49,29.86c.06,0,.06-.12.06-.36-.06,0-.06.24-.06.36ZM336.25,44.91c.36-.78.6-1.8.66-2.7.18-1.2.54-2.28.6-3.18.06-.3.12-.54.12-.78,0-.3-.06-.66-.06-1.02.06-.42.06-.78.06-1.08v-.9c-.12-1.02-.12-2.04-.36-2.94-.24-.78-.3-1.56-.48-2.46-.18-.12-.18-.36-.24-.72-.24-.3-.24-.54-.42-.9,0,0,0-.12-.06-.12v.12c-.24.06-.24.36-.24.48-.18,1.14-.48,2.16-.66,3.24-.24.48-.12,1.08-.24,1.5-.24,1.08-.3,1.92-.54,3v.36c-.3,1.44-.24,2.88-.54,4.26,0,.42-.06.9-.06,1.38,0,.24,0,.48.06.66v2.58s-.3.18-.3.3c.12.9.12,1.56.24,2.34,0,.36,0,.72.3,1.02v.3h.06c.18-.3.24-.42.6-.6.6-1.2,1.02-2.76,1.5-4.14ZM337.87,41.43c-.24.54-.24.9-.36,1.2.06.06.12.18.12.3,0,.06-.06.18-.12.24v-.12c-.06-.06-.24-.06-.24-.06l.06.06v.12c-.18.3-.18.42-.18.6-.3.48-.3,1.02-.42,1.5v.06h.18c0,.3-.18.54-.24.66v.3c-.06.42-.3.72-.42,1.08,0,.06-.12.18-.12.48.12,0,.12-.3.24-.42.42-.72.78-1.8.96-2.7.18-.72.42-1.74.54-2.76,0-.12,0-.36.12-.6l-.12.06ZM337.75,45.21v-.24c-.06.06-.12.18-.18.18-.36.66-.36,1.5-.72,2.28-.06.12-.06.42-.06.42.06,0,.06-.3.24-.3.3-.72.54-1.62.72-2.34ZM337.63,41.43h-.12v.18h.12v-.18ZM337.69,44.74h.12v-.24l-.12.24ZM339.97,10.42c-.12,0-.12.18-.12.42.12,0,.12-.24.12-.42ZM340.39,10.6c-.24.24-.42.3-.42.42.18-.12.42-.18.42-.42ZM340.09,10.24c.24,0,.24-.06.36-.06,0,0,0,.06-.12.06.06.18.06.36.06.36.18-.18.42-.36.48-.72,0,0,0-.06-.06-.06q-.3.06-.36.36v-.36c-.12.06-.36.36-.36.42ZM345.91,37.65c0,.06-.06.12-.06.18s0,.06.06.12v.12h.06c0-.18,0-.3-.06-.42ZM346.27,35.49v-.48h-.12c0,.3-.06.48-.12.78l-.12,1.02c0,.3,0,.54.06.78h-.06v.06h.06l.3-2.16ZM346.21,31.59s.06.06.06.18c.06,0,.12-.12.12-.12,0-.24.12-.42.18-.72.24-1.74.6-3.48,1.02-5.22l-.24.24c-.36,1.56-.72,3.12-.96,4.68,0,.3-.12.66-.18.96ZM349.69,19.06c-.66,1.86-1.2,3.84-1.62,5.88-.48,1.92-.96,3.72-1.32,5.64v.66q0,.06.06.12s.06,0,.06-.06c.06-.12.12-.36.12-.48l1.5-6.72c.72-2.28,1.26-4.68,2.16-6.9.54-1.38,1.14-2.82,1.8-4.14.18-.18.24-.48.24-.72-.12.12-.24.18-.24.42-.18.42-.42.9-.72,1.26-.78,1.62-1.44,3.3-2.04,5.04ZM347.71,24.58l.18-.06c.3-1.26.66-2.58,1.08-3.78.06-.18.06-.42.06-.6l-.18.42c-.42,1.32-.84,2.7-1.14,4.02ZM348.01,29.26v-.18c-.06.06-.06.18-.06.24v.18c.06-.06.06-.18.06-.24ZM348.07,29.02h-.06v.06h.06v-.06ZM348.07,29.02c.12-.18.18-.3.18-.42,0-.06,0-.18-.06-.24-.12.12-.12.36-.12.66ZM348.37,27.58c-.12.12-.18.24-.18.48v.3c.18-.24.18-.54.18-.78ZM348.43,27.1c-.06.12-.06.3-.06.48.06-.12.06-.24.06-.48ZM353.53,12.88c-.12.06-.24.12-.3.24-.3.3-.48.72-.72,1.14-1.38,2.7-2.22,5.64-3.06,8.58-.24,1.08-.54,2.22-.96,3.24v.12c0,.18-.06.54-.06.78v.12c.18-.24.24-.48.42-.84.36-1.74.84-3.42,1.38-5.1.48-1.8,1.08-3.48,1.86-5.16.36-.84.72-1.86,1.2-2.7.12-.12.24-.24.24-.42ZM349.03,20.14c.06,0,.06-.06.12-.06l.6-2.1v-.18s-.06.06-.12.18c-.18.6-.42,1.2-.54,1.92-.06.06-.06.18-.06.24ZM353.71,14.26c-.54,1.02-1.08,2.04-1.38,3.18-.42.96-.9,1.86-1.14,2.82-.3,1.14-.66,2.16-.96,3.3-.36,1.02-.6,2.22-.84,3.3q-.06.06-.06.12v.12c0,.06.06.06.06.12h.06c.12-.12.24-.18.24-.3.36-.6.66-1.08.96-1.68.42-.84.78-1.68,1.32-2.52.48-.96.84-1.98,1.32-2.94.42-1.2.84-2.34,1.2-3.54.36-1.14.6-2.34.84-3.48,0-.42.06-.78.06-1.08v-.18c-.06,0-.06-.06-.06-.06h-.12c-.12.18-.3.36-.36.6-.36.72-.84,1.5-1.14,2.22ZM349.57,44.61c-.12.06-.18.18-.18.3v.12c.12-.12.18-.24.18-.42ZM349.93,43.59c-.24.3-.3.66-.36,1.02.3-.24.3-.6.36-1.02ZM349.75,17.74c.12-.06.12-.12.12-.24-.06.06-.12.18-.12.24ZM349.93,44.91c-.12.12-.18.24-.18.42.12-.12.18-.24.18-.42ZM349.93,17.5c.06-.06.06-.18.06-.3-.06.12-.06.18-.06.3ZM350.95,40.05c0-.06-.06-.12-.12-.18-.06.06-.06.24-.12.24-.12.06-.12.12-.12.18s0,.18.06.24q-.12.06-.12.12v.12c0,.06,0,.12-.06.18-.06,0-.12,0-.12.06s.06.12.12.18v.06c0,.06-.06.12-.12.18-.06,0-.06.06-.06.12-.06.06-.06.12-.06.18s0,.12.12.18c0,.12,0,.24-.06.36-.06.12-.12.18-.24.24v.06c.06.06.06.18.06.24,0,.18-.06.3-.12.42-.06.06-.06.12-.06.18v.18c.06,0,.06-.06.06-.12v-.18c.18-.12.24-.24.3-.36.12-.54.24-1.14.42-1.62l.18-1.08c0-.06.06-.12.06-.18ZM350.05,44.61c-.12.06-.12.18-.12.24.06-.06.12-.12.12-.24ZM349.99,17.14c0-.06.06-.12.06-.18-.06.06-.06.12-.06.18ZM350.53,43.35c-.3.48-.36.9-.48,1.26.36-.3.42-.72.48-1.26ZM350.59,43.11c-.12,0-.12.12-.12.18.06,0,.12-.12.12-.18ZM350.59,43.05c.06-.06.12-.12.12-.24-.12.06-.12.12-.12.24ZM350.77,42.63v-.24c-.06.06-.12.12-.12.18s.06.12.06.24c.06-.06.06-.12.06-.18ZM350.89,42.03c-.06.12-.12.24-.12.3.12-.06.12-.12.12-.3ZM350.95,41.91c0-.12-.06-.24-.06-.3v.42q.06-.06.06-.12ZM350.95,41.55l.06-.06v-.06q-.06.06-.06.12ZM352.45,23.26c-.12.06-.18.24-.18.42.18-.06.18-.18.18-.42ZM352.63,22.78c-.12.12-.18.24-.18.48.12-.12.18-.3.18-.48ZM352.57,24.1c-.06.06-.06.12-.06.18,0-.06.06-.12.06-.18ZM352.63,23.98s.06,0,.06-.06c-.06,0-.06.06-.06.06ZM352.69,12.34,352.87,22.48v-.12c-.18.06-.18.18-.18.42.12-.06.18-.18.18-.3ZM352.87,23.56c-.12.12-.18.24-.18.3v.06l.18-.36ZM352.87,22.36c.24-.12.3-.24.3-.48-.24.12-.3.3-.3.48ZM353.11,23.26v-.12c-.24.06-.24.18-.24.42.12-.06.24-.18.24-.3ZM353.35,22.6c-.12.12-.24.3-.24.42.18-.06.24-.18.24-.42ZM353.35,21.52c-.12.06-.18.12-.18.24v.12c.18-.06.18-.18.18-.36ZM353.35,21.52c.06-.06.12-.24.12-.36-.12.06-.12.24-.12.36ZM353.59,22.24c-.12.06-.18.12-.18.24v.12c.12-.06.12-.18.18-.36ZM353.65,20.74c-.12.06-.18.12-.18.24v.18c.18-.12.18-.24.18-.42ZM353.53,12.64v.18c.18-.06.24-.36.24-.6-.12.12-.24.18-.24.42ZM353.59,22.18c.18-.06.24-.18.24-.42-.18.06-.24.3-.24.42ZM355.69,13.3c-.06.06-.06.18-.06.24v.24c-.24.18-.24.36-.24.78-.06.06-.12.12-.12.18s.06.12.12.18c-.12.12-.12.24-.12.3-.12.06-.12.18-.12.3v.06c0,.06,0,.18.06.24,0,.24-.06.54-.18.78,0-.12,0-.18-.12-.24,0,.06.06.06.06.12s-.06.06-.06.12-.06.18-.12.24c0,.12-.06.18-.06.3,0,.06,0,.24-.06.3h.12c-.12.3-.24.78-.42,1.08-.06.12-.18.18-.18.3v.06l-.18.54c0,.3-.06.42-.12.6-.18.12-.18.42-.24.72.18-.18.3-.42.3-.72l.24-.3c.06-.3.06-.48.18-.72.78-1.68,1.26-3.48,1.74-5.28.06-.48.18-.96.18-1.44v-.24l-.18.3-.12.6v-.18c-.06-.18-.12-.18-.12-.18h-.12c.12.24.12.3.12.36-.18.06-.18.24-.18.36ZM353.83,21.52q-.06.06-.06.12t.06.12v-.24ZM353.95,21.28h-.06c0,.12-.06.18-.06.24,0-.06.06-.12.12-.12v-.12ZM353.95,21.28c.06-.06.12-.12.12-.3-.12.06-.12.24-.12.3ZM354.37,20.26c-.18.18-.3.42-.3.6v.12c.18-.12.24-.36.3-.72ZM354.37,20.26c.24-.18.36-.42.42-.84-.24.3-.42.6-.42.84ZM355.09,18.46c-.18.18-.3.48-.3.78v.18c.18-.18.3-.54.3-.96ZM356.23,15.04v-.24c-.18.48-.3.78-.3,1.26-.18.06-.18.24-.18.36-.24.48-.48,1.2-.6,1.8,0,.06-.06.12-.06.24.06-.06.12-.12.12-.24l.18-.24.36-1.2c0-.06,0-.18.12-.36,0-.06.06-.18.06-.3.18-.42.3-.72.3-1.08ZM356.29,11.68c0,.06-.06.06-.06.12s0,.06.06.18v-.3ZM356.23,14.8c.18-.12.24-.3.24-.54v-.24c-.12.24-.24.54-.24.78ZM356.53,13.9s-.06.06-.06.12c0-.06.06-.06.06-.12Z"/>
        <path class="cls-1" d="M386.17,28.72c0,2.28-3.84,6.66-5.52,8.46-1.08,1.08-2.4,1.98-3.9,2.4-.54.12-1.02.24-1.56.24-.78,0-1.5-.18-2.16-.66-.84-.6-1.68-1.2-2.16-2.1-.24-.42-.36-.84-.42-1.32-.06-.3-.06-.66-.06-1.02s0-.66.06-1.02v-1.44c.12-.72.3-1.38.48-2.04v-.36c0-.06.06-.12.06-.18l-1.14,1.44-3.36,3.6c-.72.66-1.56,1.44-2.7,1.92-.42.12-1.02.42-1.56.54-.12.06-.18.06-.3.06-.18,0-.42-.06-.54-.06-.18,0-.36-.06-.54-.12-1.56-.54-2.58-1.5-2.94-3.18-.12-.66-.18-1.26-.18-1.92,0-.84.06-1.62.18-2.4.24-1.38.72-2.52,1.38-3.78.6-1.02,1.26-1.98,2.16-2.7.48-.36.96-.54,1.44-.54.12,0,.3.06.42.06l.6.18c.3.12.54.24.72.42.42.36.66.84.66,1.44v.18c-.18,1.2-.78,2.28-1.92,2.94l-1.02.6c-.12.06-.3.12-.42.12s-.18-.06-.3-.06c-.12-.06-.18-.06-.24-.06-.18,0-.24.12-.42.36-.3,1.08-.6,2.1-.6,3.18-.06.42-.06.84-.06,1.26v1.2c.06.36.24.66.3,1.02.06.18.18.24.3.24.06,0,.12-.06.18-.06.42-.18,1.26-.78,1.68-1.14.96-.66,1.92-1.2,2.52-1.98,3-2.28,7.08-6.84,7.68-6.84h.06c.42-.6.84-1.2,1.38-1.74.48-.6,1.02-1.08,1.68-1.5.3-.24.66-.42,1.08-.48.3-.06.6-.06.84-.06.66,0,1.32.12,1.98.48.72.42,1.14,1.02,1.14,1.86v.18c-.06.66-.24,1.2-.54,1.8-.48.96-1.02,1.86-1.92,2.52-1.02.78-2.34,1.38-3.48,1.68l-1.02.18c-.3.06-1.08,2.04-1.14,5.22,0,.48.24.96.42,1.44.06.36.66.54,1.08.54h.48c1.08-.24,2.22-.6,3.18-1.26s1.86-1.38,2.7-2.28c.48-.48,1.56-1.26,2.1-1.86.72-.9,1.38-1.68,1.98-2.58.36-.6.78-1.32,1.08-1.92.06.3.12.6.12.9ZM359.65,27.76c0,.06,0,.12.06.12v-.06c.06-.06.06-.12.06-.18l-.12.12ZM360.01,27.28c.36-.78.78-1.5,1.26-2.16l.84-1.08q0-.06.06-.12c-.06,0-.18,0-.18.06-.12.12-.36.24-.42.36-.78.84-1.26,1.8-1.68,2.82-.06.12-.12.3-.12.48.06-.12.12-.24.24-.36ZM362.47,24.64l.24-.3c.06,0,0-.06,0-.06,0-.06-.06,0-.06,0l-.24.3c-.3.24-.54.48-.66.84-.18.12-.24.24-.24.42v.18c.12-.12.24-.36.3-.54.24-.24.48-.54.66-.84ZM363.61,24.52c-.06,0-.3.06-.36.12-.72.66-1.14,1.38-1.62,2.1v.3h.12l1.14-.48c.6-.54.78-1.2,1.2-1.86,0-.06-.48-.18-.48-.18ZM363.55,26.08v.24c0,.06-.06.06-.12.12v.06q.06,0,.06-.06l.06-.06c.3-.12.3-.36.36-.54q0-.06-.06-.06l-.3.3ZM376.21,23.92v-.24l-.18.12c-1.02,1.02-1.74,2.16-2.46,3.48-.18.36-.3.72-.42,1.2l.3-.42c.12-.18.24-.48.42-.66.66-1.2,1.38-2.4,2.34-3.48ZM375.13,26.62c.06-.06.06-.12.06-.18,0,.06-.06.06-.06.12v.06ZM375.43,26.14c-.06.06-.12.12-.18.3.18-.06.18-.18.18-.3ZM378.43,23.98c-.42.24-.72.6-1.08.9-.78.96-1.32,1.98-1.86,3.06-.06.06-.06.12-.06.18v.06c0,.06.06.12.18.12.3-.18.54-.24.78-.42.9-.72,1.68-1.5,2.16-2.52.24-.42.42-.84.48-1.32v-.06c0-.12-.12-.18-.24-.18h-.12l-.24.18ZM377.11,23.98c-.06,0-.12,0-.18.06-.6.6-1.2,1.26-1.5,2.1.12-.06.18-.12.24-.24.48-.6,1.02-1.2,1.44-1.8v-.12ZM378.91,25.96c-.06.12-.12.18-.12.3h.12c-.12.18-.18.42-.24.6-.06.12-.24.18-.3.3v.06c.06,0,.06.06.06,0,.12-.06.18-.18.3-.3.3-.24.48-.6.66-.9.12-.18.12-.36.18-.54-.24,0-.18.3-.36.36-.06.06-.12.06-.12.12q-.06,0-.06-.06v-.12c0,.06-.06.12-.12.18ZM382.93,33.21c-.24.18-.36.24-.42.54.24-.06.3-.24.42-.54ZM383.41,32.67c-.24.12-.36.3-.48.54.24-.06.36-.24.48-.54ZM383.77,32.25c-.18.06-.3.18-.36.42.18-.06.36-.24.36-.42ZM384.49,31.3c-.3.24-.48.54-.72.9.36-.12.54-.48.72-.9ZM384.49,31.3c.12-.06.12-.18.18-.3h-.12l-.06.06v.24ZM384.67,31c.18-.06.24-.12.24-.3h-.18l-.06.3ZM384.91,30.57v.12c.24-.24.48-.48.48-.84-.24.24-.42.42-.48.72ZM385.63,29.67c0-.06-.06-.06-.12-.12v-.06h-.06l.06.06c0,.12,0,.18-.12.3.18-.06.24-.12.24-.18Z"/>
      </g>
      <g>
        <path class="cls-1" d="M30.3,41.94l-.3.42c.18-.06.42-.12.54-.24.12-.18.48-.42.6-.54.06-.06.12-.06.18-.06,0,.06.12.18.12.36l-.36.48-.6.54v.3h.06s.06,0,.06-.06l.72-.72c.24-.06.36-.18.6-.24,0,0,0-.06.06-.06l.06.06c.06,0,.06.06.06.12v.24c-.12.24-.3.6-.54.78-1.38,1.38-2.94,2.1-5.1,2.1-1.5,0-2.76-.3-3.96-.96-1.08-.54-1.98-1.2-2.88-1.98-2.7-1.92-4.86-4.32-6.72-6.9-.66-.96-1.2-1.92-1.68-2.88-.72-1.8-1.56-3.54-2.58-5.22-.18-.36-.54-.66-.72-.9-.18-.18-.48-.24-.66-.36s-.36-.12-.54-.12c-.42,0-.78.3-.84.72-.36,1.02-.54,2.04-.72,3-.24.84-.48,1.74-.6,2.52-.36,1.74-.6,3.54-1.02,5.28-.18,1.44-.48,2.94-.6,4.5-.24.78-.3,1.68-.42,2.58,0,.3,0,.48-.06.72-.06.36-.06.72-.06,1.08s0,.66.12,1.02v.24c-.06.18-.3.3-.48.3h-.12l-.36-.18c-.54-.36-1.02-.84-1.2-1.5-.36-.42-.36-1.08-.36-1.56.12-.42.12-.78.12-1.2.06-1.08.24-2.16.36-3.24.06-.6.12-1.14.24-1.68.24-1.5.48-3.06.78-4.44.18-1.44.54-2.7.72-4.14l.78-3.78c.12-.96.36-1.92.48-2.88.12-.84.48-1.68.6-2.58l1.32-5.46c.06-.6.18-1.26.48-1.86.06-.48.18-.9.3-1.32.54-1.68.96-3.48,1.5-5.16.24-.9.48-1.56.84-2.4,0-.18.18-.36.24-.48.18-.06.3-.12.36-.12.3.06.66.18.96.3.3.24.42.42.42.6,0,.36,0,.78-.06,1.02-.42,2.16-.84,4.14-1.32,6.24-.48,1.98-.96,4.14-1.38,6.18-.3,1.14-.6,2.46-.84,3.72-.06.3-.06.48-.06.72,0,.12.12.18.24.18.06-.06.12-.06.18-.06.6-.24,1.14-.54,1.74-.9.36-.12.72-.3,1.02-.48.36-.24.66-.36,1.02-.54.42-.24.84-.54,1.14-.78.54-.18.9-.42,1.44-.84.06-.06.12-.12.24-.12,1.02-.42,1.8-1.26,2.82-1.86.06-.06.12-.12.3-.18.6-.6,1.2-.96,1.8-1.5,1.68-1.38,3.42-2.58,4.86-4.14,1.02-.9,1.98-1.8,2.94-2.82.42-.36.84-.84,1.38-1.26.78-.96,1.68-2.04,2.52-3.18.96-1.26,1.92-2.46,2.7-3.9.06-.12.12-.24.3-.3.06-.18.24-.18.3-.18.18.24.3.3.42.42.24.12.24.3.3.42,0,.42-.06.78-.24,1.14-.3,1.26-1.08,2.4-1.74,3.66-1.26,1.92-2.82,3.78-4.44,5.46-1.02,1.08-2.04,2.1-3.18,3-1.32,1.2-2.7,2.4-4.26,3.48-1.14,1.02-2.52,1.86-3.84,2.82-.54.42-.9.72-1.56,1.02-1.62,1.08-3.36,2.04-5.22,2.94-.24.12-.6.3-.84.54-.06.06-.12.12-.12.18s.06.18.12.24c1.5,1.62,2.52,3.54,3.54,5.4.42,1.08,1.14,2.16,1.8,3.06.48.72.9,1.38,1.38,1.92.78,1.26,1.68,2.4,2.7,3.48.18.24.48.42.66.66.72.72,2.64,2.16,3.48,2.58.66.42,1.38.6,2.04.6.48,0,.96-.12,1.44-.24,1.02-.24,1.92-.66,2.58-1.26.36-.12.6-.3.84-.48.12-.06.24-.06.3-.06.12,0,.18.06.24.12.12.18.3.24.36.36l-.24.48ZM7.68,23.94v.06s0-.06.06-.06h-.06ZM8.94,23.34c-.48.06-.9.18-1.08.6.3-.06.78-.18,1.08-.6ZM9.06,24.06c-.12,0-.36.06-.42.24.12,0,.36-.06.42-.24ZM14.94,19.68c-.24.48-.78.36-1.08.84-.78.36-1.32.72-1.92,1.14-.24.12-.48.18-.66.36-.3.06-.78.24-1.02.6-.36.12-.84.24-1.02.48-.12.06-.24.06-.3.24.12,0,.24,0,.3-.18.48-.06.84-.18,1.14-.54.48-.06.72-.18.9-.54.42-.06.6-.12.78-.3.72-.24,1.32-.6,1.92-1.2.72-.3,1.74-1.08,2.52-1.56.3-.06.66-.42.96-.78-.6.12-2.34.84-2.52,1.44ZM9.72,23.76c-.36,0-.54.12-.66.3.3,0,.6-.06.66-.3ZM10.08,23.52c-.12,0-.3,0-.36.24.18,0,.3,0,.36-.24ZM10.5,23.34c-.12,0-.3.06-.42.18.18,0,.36-.06.42-.18ZM11.1,22.98c-.18,0-.48.12-.6.36.36,0,.54-.18.6-.36ZM11.76,22.62c-.18,0-.54.18-.66.36.36,0,.6-.12.66-.36ZM12.18,22.5c-.12,0-.3,0-.42.12.18,0,.36-.06.42-.12ZM12.84,22.08c-.36,0-.6.06-.66.42.18-.06.48-.18.66-.42ZM13.44,21.78c-.3,0-.48.06-.54.24.12,0,.36-.06.54-.24ZM15.72,20.22c.3,0,.48-.06.54-.3-.18.06-.36.12-.54.3ZM17.46,18.24c.54-.12.96-.54,1.2-.9-.6,0-.96.3-1.2.9ZM18.66,17.34c.06-.06.12-.06.12-.12-.06,0-.06.06-.12.12ZM19.08,16.92c.6-.12.9-.48,1.32-.84-.66-.18-.48-.06-1.32.84ZM23.7,13.26c.06,0,0-.06,0-.18h-.06c-.48.48-1.08.78-1.38,1.26.12-.06.24-.06.3-.12.42-.3.9-.6,1.14-.96ZM30.6,41.4c0-.06.06-.12.06-.12l.06-.06v.06l-.12.12Z"/>
        <path class="cls-1" d="M37.8,28.08c0,2.64-2.82,4.68-2.82,5.04,0,.06.06.06.12.06h.06c-.84,1.14-2.04,2.46-2.88,3.36-1.08,1.08-2.4,1.98-3.9,2.4-.54.12-1.02.24-1.56.24-.78,0-1.5-.18-2.16-.66-.84-.6-1.68-1.2-2.16-2.1-.24-.42-.36-.84-.42-1.32-.06-.3-.06-.66-.06-1.02s0-.66.06-1.02v-1.44c.12-.72.3-1.38.48-2.04v-.36c0-.06.06-.12.06-.18s-.06-.18-.06-.24-.06-.06-.06-.12l.18-.24c.18-.12.3-.3.42-.48.36-.72.66-1.5,1.08-2.22.54-.9,1.14-1.74,1.86-2.52.48-.6,1.02-1.08,1.68-1.5.3-.24.66-.42,1.08-.48.3-.06.6-.06.84-.06.66,0,1.32.12,1.98.48.72.42,1.14,1.02,1.14,1.86v.18c-.06.66-.24,1.2-.54,1.8-.48.96-1.02,1.86-1.92,2.52-1.02.78-2.1,1.38-3.24,1.68l-.66.18c-.3.06-.48.24-.6.54l-.6,4.62v.24c0,.42.12.84.24,1.26.06.36.3.54.72.54h.48c1.08-.24,2.22-.6,3.18-1.26.96-.66,1.86-1.38,2.7-2.28.48-.48,1.56-1.26,2.1-1.86.72-.9,1.38-1.68,1.98-2.58.36-.6.78-1.32,1.08-1.92.06.3.12.6.12.9ZM24.42,27.36c.06,0,.06-.06.12-.12-.06,0-.06.06-.12.06v.06ZM24.9,26.4c-.18.18-.3.42-.36.78.24-.18.36-.48.36-.78ZM27.84,23.28v-.24l-.18.12c-.18.18-.42.36-.6.6-.72.84-1.32,1.86-1.86,2.88-.18.36-.3.72-.42,1.2l.3-.42c.12-.18.24-.48.42-.66.66-1.2,1.38-2.4,2.34-3.48ZM24.9,26.4c.18-.06.24-.18.24-.3-.18.06-.18.18-.24.3ZM25.14,26.1c.24-.24.48-.6.6-.96.06-.06.12-.18.12-.3-.12.06-.18.18-.18.3-.36.24-.48.54-.54.96ZM25.86,24.84c.24-.06.36-.24.36-.48-.18.12-.3.24-.36.48ZM26.46,24.06c-.18.06-.18.18-.18.3l.18-.3ZM26.76,25.98c.06-.06.06-.12.06-.18,0,.06-.06.06-.06.12v.06ZM27.06,25.5c-.06.06-.12.12-.18.3.18-.06.18-.18.18-.3ZM30.06,23.34c-.42.24-.72.6-1.08.9-.78.96-1.32,1.98-1.86,3.06-.06.06-.06.12-.06.18v.06c0,.06.06.12.18.12.3-.18.54-.24.78-.42.9-.72,1.68-1.5,2.16-2.52.24-.42.42-.84.48-1.32v-.06c0-.12-.12-.18-.24-.18h-.12l-.24.18ZM28.74,23.34c-.06,0-.12,0-.18.06-.6.6-1.2,1.26-1.5,2.1.12-.06.18-.12.24-.24.48-.6,1.02-1.2,1.44-1.8v-.12ZM30.54,25.32c-.06.12-.12.18-.12.3h.12c-.12.18-.18.42-.24.6-.06.12-.24.18-.3.3v.06c.06,0,.06.06.06,0,.12-.06.18-.18.3-.3.3-.24.48-.6.66-.9.12-.18.12-.36.18-.54-.24,0-.18.3-.36.36-.06.06-.12.06-.12.12q-.06,0-.06-.06v-.12c0,.06-.06.12-.12.18ZM34.08,33.78c-.12.06-.18.12-.18.3.12-.06.18-.12.18-.3ZM34.32,33.54c-.06.06-.18.12-.24.24.12-.06.18-.12.24-.24ZM34.56,32.58c-.24.18-.36.24-.42.54.24-.06.3-.24.42-.54ZM34.74,33.06c-.18.12-.36.24-.42.48.24-.12.3-.24.42-.48ZM35.04,32.04c-.24.12-.36.3-.48.54.24-.06.36-.24.48-.54ZM34.98,32.7c-.06.06-.12.12-.18.3l.18-.3ZM35.4,31.62c-.18.06-.3.18-.36.42.18-.06.36-.24.36-.42ZM36.12,30.66c-.3.24-.48.54-.72.9.36-.12.54-.48.72-.9ZM36.12,30.66c.12-.06.12-.18.18-.3h-.12l-.06.06v.24ZM36.3,30.36c.18-.06.24-.12.24-.3h-.18l-.06.3ZM36.54,29.94v.12c.24-.24.48-.48.48-.84-.24.24-.42.42-.48.72ZM37.26,29.04c0-.06-.06-.06-.12-.12v-.06h-.06l.06.06c0,.12,0,.18-.12.3.18-.06.24-.12.24-.18Z"/>
        <path class="cls-1" d="M39.42,24.24v-.3c-.12.06-.24.24-.24.48.12-.12.18-.18.24-.18-.06.12-.06.18-.06.24s0,.18.06.24c-.72,1.32-1.32,2.58-1.74,4.02-.12.42-.24.84-.3,1.38.12-.06.12-.36.3-.48.36-1.2.78-2.4,1.26-3.54.36-.66.9-1.5,1.08-2.16.24-.18.36-.3.36-.42.06-.18.06-.24.12-.24.36,0,.36.3.42.42v.12s.06-.06.12-.06.06-.06.06-.06c.18,0,.3.06.3.12,0,.3-.12.42-.24.66-.24.84-.54,1.68-.9,2.52-.42,1.5-.96,2.94-1.32,4.44-.24,1.02-.48,2.1-.48,3.24v.9c.06,0,.12.06.18.06.18-.06.42-.12.54-.3.78-.72,1.56-1.38,2.34-2.28.9-.96,1.68-1.92,2.58-2.64.66-.9,1.38-1.62,2.1-2.4.96-.96,1.8-1.98,2.58-2.94l.3-.42c.12.18.12.42.18.6v.12c0,.12-.06.3-.06.42-.06.66-.48,1.26-.96,1.92-.24.12-.48.24-.54.42l-.06.06c-.78.72-1.26,1.38-1.86,2.16-1.14,1.2-2.16,2.46-3.12,3.54-.36.6-.84,1.14-1.2,1.62-.24.36-.54.66-.84,1.02l-.9.84c-.24.12-.54.18-.84.18-.24,0-.42,0-.66-.06-.18-.12-.48-.18-.66-.42-.3-.12-.6-.24-.84-.42-.24-.3-.48-.6-.66-1.02-.24-.6-.42-1.26-.42-1.92,0-1.38.12-2.7.54-4.02.12-.96.3-1.8.72-2.7l1.14-2.28c.3-.6.78-1.14,1.2-1.74.06-.18.36-.18.42-.18.06.18.06.24.12.3,0,.06-.06.12-.06.18.06.06.06.24.06.24h.12v.12q0,.06-.06.12c0,.24-.12.42-.42.48ZM36.96,29.82q0-.06.12-.12c-.12,0-.12.06-.12.06v.06ZM37.08,29.22c-.06.12-.06.18-.06.24s0,.12.06.18c.06,0,.12-.06.12-.12s-.06-.18-.12-.3ZM37.14,28.98q-.06.06-.06.24c.06-.06.06-.12.06-.24ZM37.32,28.56c-.06.06-.06.12-.06.42.06-.06.06-.3.06-.42ZM37.38,30.12c-.06.06-.06.12-.06.18v.24c.06-.06.06-.12.06-.18v-.24ZM37.44,28.26q-.06.06-.06.12v.18c.06-.06.12-.12.12-.18s-.06-.06-.06-.12ZM37.98,26.94c-.3.36-.48.78-.54,1.32.24-.42.54-.72.54-1.32ZM38.1,26.7c-.12,0-.12.12-.12.24.06-.06.12-.18.12-.24ZM38.1,26.4v.24s.06,0,.06-.06-.06-.12-.06-.18ZM38.82,25.08c-.36.36-.6.72-.66,1.32.42-.3.54-.72.66-1.32ZM39.06,24.78c-.12.06-.24.06-.24.3.06-.06.24-.12.24-.3ZM39.18,24.42c-.12.06-.18.06-.18.12s.06.18.06.24c.12-.06.12-.24.12-.36ZM39.78,23.52c-.3.06-.36.18-.36.42.18-.12.36-.12.42-.18,0-.06,0-.12-.06-.24ZM40.14,23.22s0,.06.06.12c-.18,0-.24.06-.3.12.06-.06.06-.12.18-.18,0-.06.12-.12.12-.18l.06-.06v.06c-.06.06-.12.06-.12.12ZM43.44,18.54c-.3.12-.42.24-.54.54-.12.12-.18.24-.18.42,0,.12,0,.18.06.3-.12.18-.18.36-.24.6-.18,0-.24.06-.3.06s-.06-.18-.18-.18v-.18c-.12-.12-.42-.18-.48-.48,0-.24-.24-.18-.42-.36-.18-.06-.18-.18-.18-.3.06-.66.24-1.2.78-1.62.06-.12.24-.12.36-.12s.18,0,.24.06c.18.06.54.18.66.3.24.12.42.42.6.6-.12.06-.12.3-.18.36ZM41.7,34.44c-.24.06-.36.12-.36.24,0,.06.12.18.18.18s.18-.12.18-.3v-.12ZM41.82,34.26c0,.06-.06.12-.12.18h.06c.06-.06.06-.12.06-.18ZM42.18,33.9c-.18.06-.3.12-.36.36.18-.06.3-.18.36-.36ZM41.88,17.94h.12c-.06-.06-.06-.18-.06-.18-.06,0-.06.06-.06.12v.06ZM42.48,17.76v-.06l-.06.06h-.18v-.12c-.24,0-.24.06-.3.12h.18c-.12.06-.12.18-.12.24.06.06.06.12.06.18.36-.06.42-.18.42-.42ZM42.6,33.24l-.24.48c.12-.12.18-.24.24-.48ZM42.72,33.06h-.06v.06s.06,0,.06-.06ZM43.14,32.7c-.18.12-.36.18-.42.36.18-.06.36-.12.42-.36ZM43.02,32.1s0,.06.06.06v-.12c-.06,0-.06.06-.06.06ZM43.08,32.04c.06-.06.18-.06.18-.06,0-.06.06-.18.12-.24-.06,0-.06.06-.12.06-.12.12-.12.18-.18.18v.06ZM43.32,32.64l-.06-.06c-.06,0-.06.06-.12.12h.06s.06,0,.12-.06ZM43.68,32.16c-.18.12-.36.24-.36.48.18-.06.3-.24.36-.48ZM43.38,31.74c.18-.06.36-.24.48-.42-.18.06-.36.12-.48.42ZM43.92,31.8c-.06.18-.12.24-.12.24-.06,0-.12.06-.12.12.06,0,0-.06.12-.06,0-.06.06-.12.12-.12v-.18ZM46.08,28.86c-.24.06-.36.12-.36.3l-.06.18c.18-.12.3-.24.42-.48ZM46.32,29.04c0-.06.06-.06.18-.12-.12.06-.18.06-.18.12ZM46.92,28.5c-.18.06-.24.18-.42.42.3-.06.36-.18.42-.42ZM48.18,26.52c-.18.12-.3.18-.3.36q-.06.06-.06.12c.18-.06.3-.18.36-.48ZM48.18,27.18c-.18.06-.3.18-.36.36.18-.06.36-.12.36-.3v-.06ZM48.72,25.86c-.18.12-.3.3-.36.54.18-.12.3-.24.36-.54ZM49.14,25.26c-.18.06-.24.12-.3.24v.24c.18-.06.3-.3.3-.48Z"/>
        <path class="cls-1" d="M70.14,26.1l-.06.06c0,.24-.06.3-.18.42-.48.42-.9.9-1.32,1.56-.42.54-.84,1.02-1.14,1.68-.66,1.08-1.26,2.22-2.1,3.42-1.08,1.8-2.34,3.42-3.3,5.1-.54,0-1.08.78-1.5,1.44-.54.24-.9.42-1.14.66-.18.12-.42.24-.6.24-.24,0-.48-.12-.72-.36-.48-.12-.36,0-.66-.24-.06-.18-.3-.36-.48-.54-.3-.36-.6-.9-.72-1.26-.12-.66-.18-1.26-.18-1.92.06-.9.24-1.74.36-2.7l.66-2.88c0-.42.24-.72.3-1.08l.24-.72c.24-.9.6-1.8.9-2.7l.78-2.16v-.18h-.12c-.06.12-.12.12-.18.12-.36.3-.66.6-1.08.9-.48.6-1.02,1.14-1.56,1.86-.54.78-1.08,1.44-1.56,2.28-1.08,1.86-2.28,4.02-3.6,5.88-.18.3-.42.54-.66.72-.24.24-.54.36-.78.36-.18,0-.36,0-.54-.12-.3-.18-.6-.36-.84-.72-.18-.18-.36-.24-.48-.48-.18-.36-.42-.66-.54-1.08-.18-.54-.24-1.08-.24-1.62,0-.3.06-.54.06-.84s.06-.6.06-.9c0-.18-.06-.36-.06-.48s-.06-.24-.06-.42c0-1.2.6-2.94,1.02-4.26.18-.54.42-1.14.72-1.68.06-.18.12-.36.24-.48l.24-.42c.24-.3.42-.36.6-.36.12,0,.18,0,.3.06.12,0,.18.06.18.12s0,.12-.06.18c0,.06.06.06.06.06v.12q0-.06.06-.12c.06,0,.24-.12.36-.18h.12v.06c-.06.06-.18.24-.18.36,0,.06.06.06.12.12l.3-.18c.06-.12.06-.18.12-.18l.12-.12.06.06v.24h.12c.06,0,.12.06.12.12s-.06.18-.06.24c-.12.18-.18.36-.24.54q0,.06.06.12h.06c.06-.18.18-.36.3-.48.06-.06.18-.06.18-.06.18,0,.18.06.18.18v.6c0,.12-.06.24-.12.42-.54,1.14-.9,2.4-1.14,3.54-.18.6-.24,1.26-.3,2.04-.12.54-.3,1.02-.36,1.62-.06.24-.06.42-.06.66,0,.12,0,.24.06.3.12,0,.18-.06.3-.12.06-.18.18-.24.24-.36.54-.72,1.08-1.62,1.62-2.4.6-.96,1.14-1.8,1.8-2.64.78-1.02,1.56-2.04,2.52-2.88l1.62-1.56c.18-.18.42-.3.6-.42.18-.12.36-.18.54-.18.12,0,.24,0,.3.06h.24c.42,0,.84.12,1.2.48.24.24.42.6.42,1.08-.06.42-.12.84-.12,1.32-.18,1.26-.42,2.46-.78,3.6-.24.9-.48,1.62-.66,2.46-.18.72-.48,1.62-.6,2.34-.24.9-.42,1.8-.6,2.82-.18.6-.18,1.26-.24,1.98v.24s0,.06.06.06c0,0,.06-.06.12-.06.24-.12.36-.12.48-.12.48,0,.72-.48,1.02-.72.84-1.14,1.8-2.22,2.46-3.42,1.32-1.8,2.58-3.6,3.66-5.46.6-.54.96-1.32,1.5-1.92.48-.3.78-.78,1.14-1.2.06-.06.18-.12.24-.12s.06.06.12.06c.12.12.18.24.3.24h.06v.3h.06q.06,0,.12-.06h.06l.06.06ZM50.4,34.08v-.12c0,.06-.06.12-.06.12h.06ZM50.4,33.9l.18-.12c.18-.18.42-.36.54-.54.84-1.02,1.5-2.16,2.1-3.18.6-1.02,1.26-1.92,1.86-2.88l.12-.24c-.24.06-.36.24-.48.48-.24.42-.54.84-.9,1.26l-.24.36c-.06.06-.06.18-.12.18-.72,1.26-1.44,2.52-2.28,3.6-.3.42-.54.6-.66.9l-.12.18ZM54.42,28.92c-.36.3-.66.84-.9,1.38-.18.12-.3.24-.3.42l-.12.12c-.66,1.2-1.56,2.46-2.28,3.54l-.24.3c.42-.12.54-.36.72-.66.42-.72,1.14-1.62,1.62-2.46.18-.18.24-.54.36-.78.12-.12.24-.24.3-.36.24-.42.54-.78.72-1.14.06-.12.12-.24.12-.36ZM55.68,27c-.24.06-.3.24-.42.54-.12.12-.3.3-.3.54-.18.06-.24.24-.36.42-.06.06-.18.24-.18.42.12-.12.18-.24.24-.42.12-.06.3-.18.3-.36.18-.12.3-.36.36-.6.18-.18.36-.36.36-.54ZM55.32,26.7c.18-.06.3-.24.42-.48-.24.12-.42.3-.42.48ZM56.28,26.16c-.24.18-.36.36-.36.54.12-.18.3-.3.36-.54ZM62.7,36.48c-.36.12-.48.3-.54.6-.18.12-.3.36-.36.6-.3.18-.54.66-.9.66-.18,0-.3.18-.36.36l-.24.36h.06l.66-.72c.36,0,.66-.12.78-.6.24-.12.3-.42.42-.66.24-.12.3-.36.48-.6ZM60.54,38.34c.24,0,.42-.12.6-.42.78-.96,1.5-1.98,2.28-3.06l2.1-3.18c.18-.42.36-.9.66-1.14.24-.36.48-.78.66-1.2.18-.18.36-.48.54-.78.42-.36.66-.72.84-1.08.12-.06.18-.18.18-.36-.12.06-.18.18-.24.3-.06.12-.12.12-.3.18l-.36.66c0,.06-.12.18-.12.24-.06,0-.12,0-.12.06l-.24.36h-.06c-.06.06-.12.12-.12.18s0,.12-.06.18h-.12l-.06-.06-.06.06h-.06c.06.06.06.12.06.12-.06.06-.06.24-.12.3h.06l-.18.3c-.06.06-.12.18-.18.18,0,0-.06,0-.12-.06-.06.06-.06.12-.06.18v.12l-.06.12h.06c-.18.18-.24.24-.24.3-.06.06-.12.18-.12.24,0,.12-.06.18-.18.36v-.06l-.06.06c-.06.06-.12.18-.12.24,0,0-.06,0-.06.06,0,0,.06,0,.06.06l-.18.24c0,.06,0,.24-.12.3-.12.12-.12.18-.18.3l-.06-.06s-.06,0-.06.06-.12.12-.18.12l-.06.06v.12c0,.12-.06.18-.12.18l-.18.3-.12-.12v.06c0,.12-.06.18-.12.24,0,.12-.06.18-.18.3q-.06.06-.06.12c0,.06-.12.18-.18.24h-.06l-.18.24c-.06.12-.06.3-.12.36l-.06.06.06.06c-.06.12-.06.18-.18.24,0-.06-.06-.06-.06-.06,0,0-.06,0-.06.06-.06.06-.12.12-.12.24h.12c-.12.12-.24.24-.42.3v-.06l-.06.06c0,.12-.06.24-.06.3s-.06.06-.06.06l.06.06c-.06.12-.18.18-.24.24-.12.18-.18.36-.36.36,0,.12-.12.24-.3.3,0,.3-.24.54-.48.84-.06.24-.18.42-.3.42ZM63.12,35.82c-.24.12-.3.36-.42.66.3-.12.42-.36.42-.66ZM63.3,35.58c-.06,0-.06.12-.12.18.06,0,.12-.12.12-.18ZM63.78,34.92c-.24.18-.3.36-.42.66.24-.12.36-.36.42-.66ZM63.84,34.8v-.12c-.06.06-.06.12-.06.24q.06-.06.06-.12ZM64.02,34.38c-.06.06-.18.18-.18.3.06-.12.18-.18.18-.3ZM64.56,33.9c-.3.12-.42.24-.54.48.24,0,.36-.18.54-.48ZM64.68,33.72c-.06,0-.12.12-.12.18.06,0,.12-.12.12-.18ZM64.8,33.42c-.06.06-.12.12-.12.24.12-.06.12-.12.12-.24ZM65.04,33.12c-.12.06-.24.18-.24.3l.24-.3ZM65.1,32.94c-.06.06-.06.12-.06.18q.06-.06.06-.18ZM65.22,32.76c-.06,0-.12.06-.12.06q.06,0,.12-.06ZM65.46,32.46c-.12.06-.18.18-.24.3.12,0,.24-.18.24-.3ZM66.24,31.08h-.06v.06s.06,0,.06-.06ZM66.42,30.72c-.12.12-.18.18-.18.36.12-.06.18-.18.18-.36ZM67.26,29.4c-.12.06-.24.18-.24.42.12-.06.24-.24.24-.42ZM67.38,29.16c-.12.06-.12.12-.12.24.06-.06.12-.12.12-.24ZM67.86,28.56c-.12,0-.18.12-.3.3l.3-.3ZM68.1,28.26l-.18.24c.12-.06.18-.12.18-.24ZM68.34,27.9c-.12,0-.18.18-.18.36.12-.06.18-.12.18-.36ZM68.58,27.6c-.18.12-.18.18-.24.3.12-.12.24-.24.24-.3Z"/>
        <path class="cls-1" d="M100.86,30.6c-1.2,1.86-2.64,3.66-4.32,5.28-1.02,1.08-1.98,1.98-3.06,2.7l-3,2.22c-1.26.84-2.28,1.5-3.54,2.1-1.2.54-2.34.96-3.54,1.32-.48.12-.96.18-1.44.18-.84,0-1.68-.18-2.52-.42-.48-.24-1.14-.48-1.5-.78-1.14-.72-2.04-1.8-2.7-3-.6-1.38-.84-2.7-1.08-4.2,0-.66-.06-1.2-.06-1.8-.06-.6-.06-1.2-.06-1.8v-.78c.06-.78.12-1.56.24-2.28.42-2.34.96-4.62,1.68-6.84.54-1.74,1.2-3.48,1.98-5.22.48-1.32,1.14-2.64,1.92-3.84.9-1.62,1.86-3.36,3.06-4.8.42-.54.9-1.26,1.32-1.74.18-.18.3-.36.48-.48,1.02-.9,1.8-1.98,3-2.7,1.08-.9,2.16-1.5,3.24-2.04.66-.24,1.26-.36,1.92-.36.72,0,1.5.18,2.16.48,1.32.66,2.1,1.74,2.46,3.18.18.42.24.72.24,1.08v.9c0,1.8-.6,3.54-1.08,5.34-.84,2.22-1.86,4.38-3.06,6.36l-1.8,2.94c-.42.3-.72.66-.84,1.02-.18.18-.36.24-.48.24s-.18-.06-.3-.18c-.06-.12-.3-.18-.36-.36-.12-.06-.42,0-.42-.24,0-.18.12-.3.3-.42,1.26-2.46,2.46-4.86,3.54-7.44.78-1.92,1.5-4.02,1.92-6,.12-.84.3-1.68.3-2.52,0-.54-.06-1.08-.24-1.62,0-.18-.06-.3-.06-.36,0-.3-.24-.42-.42-.42-.24,0-.48-.06-.72-.06-.48,0-.96.12-1.38.3-.9.48-1.8.9-2.58,1.44-.66.6-1.38.96-1.92,1.56l-1.86,2.04c-1.32,1.56-2.52,3.6-3.48,5.46-.96,1.62-1.74,3.24-2.52,4.98-.42,1.02-.78,2.1-1.08,3.18-.18.36-.36.72-.42,1.14-.48,1.38-.84,2.88-1.08,4.38-.06.72-.24,1.56-.3,2.22-.06.54-.24,1.14-.24,1.56-.06.48-.12,1.02-.12,1.5,0,.84.12,1.68.18,2.58,0,1.08.24,2.28.54,3.24.18.96.54,1.74,1.14,2.52.36.54.9.9,1.44,1.02.3,0,.54.06.78.12.6-.06,1.26-.24,1.74-.48,1.98-.72,3.78-1.8,5.7-2.82,1.02-.72,2.22-1.32,3.24-2.34.6-.36,1.02-.84,1.62-1.32,1.86-1.56,3.96-3.48,5.34-5.22,2.28-2.52,2.94-3.48,3.54-3.48.12,0,.24-.06.36-.06s.24.06.36.36c-.66,1.2-1.26,2.4-2.16,3.48ZM76.5,25.02q0,.12.06.12c0-.06.12-.42.12-.6-.12.12-.18.18-.18.3v.18ZM76.86,23.64c-.06.24-.06.6-.18.9.12-.06.18-.12.18-.18.18-.72.36-1.44.66-2.28,0-.12,0-.36.12-.48-.12.06-.24.18-.36.36-.12.54-.3,1.02-.42,1.68ZM80.1,14.88c-.12.42-.12.66-.24.84-.78,1.56-1.56,3.3-2.04,5.04-.12.3-.18.48-.18.84.3-.3.3-.54.42-.96,1.08-3,2.34-5.82,4.02-8.4.84-1.32,1.74-2.7,2.64-3.96.18-.12.24-.36.42-.54.3-.36.66-.54.84-.84.12-.18.12-.36.24-.48-.48.3-.9.72-1.2,1.26-.96,1.08-1.26,1.5-1.74,1.92-.06.36-.18.48-.36.48-1.26,1.56-1.74,3.18-2.82,4.8ZM77.88,19.8v-.24q-.06.06-.06.18s0,.06.06.06ZM77.94,19.5c.18-.12.18-.36.18-.48-.18.06-.18.18-.18.3v.18ZM78.12,19.02c.18-.12.18-.42.18-.6-.12.12-.12.36-.18.6ZM78.66,17.58v.06s0-.06.06-.06h-.06ZM78.96,16.98c-.18.12-.18.3-.18.48.12-.06.12-.3.18-.48ZM78.96,16.98c.12-.12.12-.24.18-.42-.12.12-.18.24-.18.42ZM79.14,16.56s.06,0,.06-.18v-.06c0,.06-.06.06-.06.06v.18ZM79.86,15.12c0,.06-.06.18-.06.24,0,0,0-.12.06-.24ZM79.8,15.36,79.86,15.12c0-.06,0-.18.06-.24-.06.06-.06.12-.06.24ZM79.92,14.88h.18s-.06-.06-.06-.12l-.12.12ZM82.38,12.96c-.18.06-.18.18-.18.3.12-.12.12-.24.18-.3ZM82.68,12.6c-.24.06-.3.18-.3.36.06-.18.12-.3.3-.36ZM82.86,12.24c-.12.06-.12.18-.18.36.18-.06.18-.24.18-.36ZM83.1,11.64c-.18.12-.18.24-.24.6.18-.24.24-.36.24-.6ZM83.46,11.22c-.24.06-.3.24-.36.42.24-.12.36-.24.36-.42ZM83.82,10.8c-.3.06-.36.24-.36.42.18-.06.36-.24.36-.42ZM84,10.32c-.12.06-.12.18-.18.48.18-.3.18-.36.18-.48ZM84.36,9.72c-.24.18-.3.36-.36.6.3-.18.36-.24.36-.6ZM85.02,9c-.36.18-.6.42-.66.72.42-.12.54-.3.66-.72ZM86.28,7.32c-.3.18-.54.48-.78.96-.24.18-.48.36-.48.72.24-.12.48-.36.6-.72.3-.18.6-.54.72-.96h-.06ZM86.28,6.36l.12-.12s.06-.06.06-.18l-.12.18q0,.06-.06.12ZM86.64,7.14l.12-.18c.18-.06.42-.3.54-.54-.3,0-.48.24-.6.54,0,.06-.06.12-.06.18ZM91.44,19.92c-.18.06-.18.18-.18.3.12-.12.12-.18.18-.3ZM91.26,20.22,91.8,19.5c-.18.06-.36.18-.36.42.3-.06.36-.3.36-.42ZM92.28,18l-.36.72c-.06.24-.12.48-.12.66,0-.06.12-.18.24-.24l.78-1.38c.3-.96-.3-.12-.54.3v-.06ZM93.3,16.5c-.12.06-.18.18-.18.36.18-.06.18-.24.18-.36ZM93.12,16.86,93.3,16.5"/>
        <path class="cls-1" d="M105.66,38.1c-.48-.06-1.08-.18-1.62-.42l-.66-.18c-.54-.18-1.02-.36-1.44-.72-.54-.42-.9-.9-.96-1.44,0-.42-.12-.66-.12-.9q-.06-.06-.06-.12v-.6c0-.18,0-.36.06-.6-.06-.12-.12-.24-.12-.3s.06-.12.06-.18c0-.12.06-.36.06-.54.12-.06.12-.12.12-.18l.18-1.26c0-.24.06-.42.12-.66,0-.3.06-.54.06-.72.18-.66.42-1.38.66-1.92.12-.48.36-.84.42-1.32.12-.12.12-.24.18-.42,0,0,0-.06.06-.12.42-.66.78-1.38,1.14-1.98.36-.42.72-.96,1.02-1.38l.48-.36c.18-.18.42-.24.72-.24.18,0,.36.06.48.12h.3c.18,0,.3.06.54.18,0,0,.06.06.18.12.06.06.06.18.06.3v.12c-.36.3-.48.72-.72,1.02-.3.78-.78,1.56-1.08,2.22-.18.36-.24.9-.42,1.26-.18.72-.42,1.5-.72,2.16,0,.3-.06.6-.06,1.02-.18.54-.18,1.08-.36,1.68l-.18,2.04c-.06.12-.06.18-.06.3s0,.18.06.3v.42c0,.3,0,.6.18.9,0,.24.18.48.24.66l.24.18c.18.12.36.24.48.24s.24,0,.42-.18c.18-.12.42-.24.6-.42.6-.72,1.14-1.56,1.5-2.4l.66-1.44c.18-.42.42-1.02.48-1.56.06-.3.18-.54.24-.9v-.3c0-.12-.06-.18-.3-.24-.42-.12-.78-.42-1.14-.6l-.3-.24c-.18-.06-.3-.3-.3-.48,0-.06,0-.18.06-.24v-.18c.12-.66.72-1.08,1.5-1.38.24-.12.54-.12.84-.12.24,0,.3.06.36.06.24,0,.36.06.54.12.42.24.54.48.6.78.06.3.12.48.24.72-.06.06-.06.18-.06.24v.12c0,.18.06.18.24.18.72-.18,1.38-.3,2.1-.42.54-.12,1.02-.3,1.44-.54.48-.18.78-.36,1.14-.54l.48-.36c.06-.12.18-.18.36-.18h.18q0,.06.06.06h.12c0,.12.06.12.06.12.06,0,.06-.12.12-.12h.12c.06,0,.12.12.12.18v.12s0,.06.12.06l.06-.06c.06-.06.12-.06.18-.06s.12.06.12.12-.06.06-.06.12c-.12.06-.12.12-.12.18-.12.06-.18.12-.24.24-.36.36-.84.66-1.44.96-.54.36-1.2.6-1.8.78-.78.18-1.5.36-2.22.36-.24.06-.6.06-.84.06-.3.06-.36.06-.36.36-.18.72-.18,1.38-.54,2.1-.18.78-.36,1.5-.66,2.22-.36.72-.6,1.44-1.08,2.1-.18.3-.48.6-.66.96-.48.54-1.38.96-2.28.96h-.18ZM104.46,24.06c-1.08,1.56-1.56,3.18-1.98,4.8-.18.36-.18.66-.24,1.08-.12.42-.18.9-.24,1.32-.06.18-.12.42-.12.54v.78l.12-.24v-.54c.12-.36.12-.6.18-.84v-.48c.18-.54.3-1.2.48-1.8.18-.84.48-1.62.84-2.46.18-.72.66-1.62,1.2-2.34,0-.12.06-.24.06-.36v-.06c0,.06-.06.06-.06.12-.12.18-.24.3-.24.48ZM105.9,22.32c-.3.3-.6.78-.78,1.14-.96,1.5-1.56,3.12-2.04,4.74-.06.48-.24.96-.42,1.44-.18.66-.18,1.2-.3,1.68-.06.54-.06.9-.18,1.38v.24l.06.06v-.06c.12-.3.18-.72.18-1.02.18-.54.24-.96.3-1.44.18-.96.42-1.86.78-2.82.18-.9.66-1.92,1.08-2.76.54-.84.84-1.62,1.38-2.4.06-.06.12-.18.12-.24,0,0-.06,0-.06-.06l-.12.12ZM104.76,23.46c.12-.12.42-.3.42-.48-.24.12-.42.3-.42.48ZM106.62,22.44c-.06.12-.12.24-.24.36-.54.72-.96,1.5-1.26,2.34v.06q0,.06.06.06v-.06c.48-.96.9-1.74,1.5-2.58q.12-.06.12-.12l-.18-.06ZM107.82,35.4c.24-.18.3-.3.36-.54.78-1.08,1.14-2.4,1.56-3.6.06-.12.06-.18.06-.3v-.06l-.12.06c-.18.36-.3.84-.36,1.2-.36.9-.72,1.86-1.26,2.7l-.24.54ZM108.48,27.18h-.18c-.24.54-.18.54-.06.54l.24-.54ZM108.36,33.78c-.06,0-.06.12-.06.18q.06-.06.06-.18ZM108.36,33.72c.24-.12.3-.36.3-.6-.18.24-.3.42-.3.6ZM108.54,35.52c.12-.12.12-.18.24-.36.36-.66.66-1.38.9-2.1v-.18h-.06l-.36.78c-.18.54-.48,1.14-.78,1.86.06,0,.06.06.06,0ZM108.66,33.12c.12-.06.12-.18.12-.24-.12.06-.06.18-.12.24ZM108.84,32.76q-.06.06-.06.12c.18-.12.18-.24.18-.36-.12.06-.12.18-.12.24ZM109.08,32.16c-.06.06-.12.12-.12.18v.18c0-.06.06-.06.12-.12v-.24ZM109.14,31.8c-.06.06-.06.12-.06.18v.18c0-.06.06-.06.06-.12v-.24ZM109.26,31.44h-.06c0,.18-.06.24-.06.36.06-.12.12-.18.12-.3v-.06Z"/>
        <path class="cls-1" d="M136.62,26.94c.18,0,.24.24.42.3.06,0,.06.12.06.18-.12.36-.18.72-.36,1.02-1.2,1.98-2.34,3.84-3.66,5.7-.48.72-1.14,1.5-1.68,2.34l-1.62,1.44c-.72.42-1.26.66-1.86.66-.42,0-.84-.12-1.32-.36-.9-.42-1.74-1.08-2.28-1.98-.36-.6-.54-1.26-.6-1.92,0-.3-.06-.66-.06-.96-.06-.18-.06-.36-.06-.48.18-1.98.54-4.02,1.08-5.94.12-.36.36-.78.36-1.2v-.12c-.42.12-.36.48-.48.84l-2.28,4.02c-.66,1.2-1.32,2.34-2.1,3.42-.42.6-.96,1.14-1.5,1.74-.3.42-.84.66-1.26.84-.12.06-.24.06-.36.06-.18,0-.42-.06-.66-.12-.66-.24-1.14-.84-1.74-1.38-.42-.3-.66-.84-.66-1.32,0-.12.06-.18.06-.3,0-.24-.06-.54-.06-.78,0-1.2.24-2.28.6-3.3.24-.96.66-1.92,1.02-2.82.6-1.14,1.26-2.16,2.04-3.18.12-.18.18-.36.3-.42.42-.6.9-.84,1.38-1.2.18-.12.3-.18.48-.18.12,0,.3-.06.48-.06.9,0,2.04.42,2.82,1.2.24.24.36.6.48.9,0,.06.06.18.06.3,0,.18-.06.3-.18.42-.06.06-.12.12-.18.12s-.18-.06-.3-.12l-.96-.72c-.12-.12-.18-.12-.24-.12s-.12,0-.18.06l-.72.66c-.54.6-.96,1.26-1.44,1.92-.84,1.56-1.44,3.18-1.98,4.86-.3.6-.42,1.32-.54,1.92-.06.18-.06.48-.06.66,0,.06.06.18.12.24h.06c.06,0,.12,0,.18-.06,1.02-.96,1.98-2.1,2.76-3.42,1.26-1.8,2.52-3.6,3.72-5.46.72-1.2,1.74-2.52,2.58-3.72l1.14-1.62c.18-.24.24-.36.36-.36.06,0,.24.06.42.12.24.12.6.24.78.36.24.24.42.48.42.78,0,.12-.06.24-.06.36l-.66,2.04c-.66,2.16-1.32,4.38-1.86,6.6-.18.96-.42,1.92-.54,3-.06.66-.12,1.26-.12,1.92,0,.48.06.9.06,1.38s.12.78.3,1.14c.18.3.48.42.78.42h.18c.18-.06.42-.06.6-.18.42-.42.9-.72,1.26-1.2,1.08-1.2,2.28-2.46,3.18-3.96.9-1.2,1.68-2.4,2.52-3.66.24-.3.36-.72.48-1.08l.42-.36c.06-.06.12-.06.18-.06s.12,0,.18.06c.12.06.06.12.12.18.06-.06.12-.06.18-.06ZM118.02,25.14l-.24.18c-.96,1.44-1.68,3.24-2.16,4.98-.06.18-.12.36-.12.54,0,.12,0,.18.06.3-.18.06-.24.24-.24.36,0,.06.06.12.06.18s-.06.06-.06.12c-.06,0,0,.06,0,.06,0-.06.06-.12.06-.18.18-.12.18-.36.18-.6.18-.06.18-.24.3-.54.48-1.62,1.08-3.18,1.92-4.62.12-.18.18-.54.3-.78.24-.06.36-.36.48-.66-.36.12-.54.3-.54.66ZM117.48,28.14c-.06.12-.12.24-.12.36.12-.06.12-.18.12-.36ZM117.6,27.96v-.18c-.12.12-.12.24-.12.36.12-.06.12-.12.12-.18ZM117.96,27.3c-.3.06-.36.24-.36.48.24-.12.3-.24.36-.48ZM118.08,26.94c-.12.06-.12.18-.12.36.12-.06.12-.24.12-.36ZM118.44,26.1c-.24.12-.36.36-.36.66v.18c.24-.18.36-.42.36-.84ZM118.44,26.1c.24-.12.3-.18.3-.36v-.18c.24-.06.36-.24.36-.48-.24.06-.3.24-.36.42-.18.12-.3.36-.3.6ZM118.8,23.94c-.12.06-.24.24-.24.42v.12c.12-.12.24-.24.24-.54ZM119.58,24.42c-.24.06-.36.18-.36.42.18-.06.36-.18.36-.42Z"/>
        <path class="cls-1" d="M149.94,25.08c.18,0,.3.12.42.18v.36c-2.52,4.08-4.62,6.54-6.72,8.88-.66.84-1.44,1.68-2.34,2.46-1.2,1.08-2.34,1.98-3.84,2.52-.42.12-.78.24-1.2.24-.3,0-.6-.06-.9-.18-1.02-.54-1.86-1.26-2.34-2.28-.3-.72-.36-1.5-.42-2.28.06-.36.06-.72.06-1.08l.18-.84c.06-.48.12-.96.24-1.44.3-1.08.72-2.16,1.2-3.24l.96-1.74c.66-1.2,1.5-2.28,2.4-3.3.42-.54.96-.84,1.5-1.2.18-.18.48-.24.72-.24.24-.06.54-.06.78-.06.54,0,1.02.12,1.5.3.72.3,1.2.9,1.56,1.62l.3.78v.54c0,.12-.24.24-.36.24-.24-.06-.42-.12-.6-.3-.3-.3-.66-.54-.9-.9,0-.06,0-.12-.06-.18-.12-.12-.3-.24-.42-.24s-.18.06-.3.12c-.42.18-.78.48-1.14.84-1.2,1.14-1.98,2.58-2.7,4.02-.48.96-.84,1.98-1.26,3-.24.78-.54,1.56-.66,2.4,0,.18-.12.36-.12.54-.06.42-.12.84-.12,1.2,0,.54.06,1.02.18,1.56v.12c.12.18.18.24.36.24h.18l.48-.18c1.86-.66,3.48-1.74,4.8-3.06l2.04-2.16c1.26-1.44,2.76-3.06,3.9-4.74l1.92-2.52c.12-.18.24-.24.3-.24.12,0,.12.12.24.3.06-.06.12-.06.18-.06ZM134.76,29.34q0,.06.06.06c0-.06-.06-.06-.06-.06ZM135.06,28.98v-.12c-.12.12-.12.24-.18.36.12-.06.18-.12.18-.24ZM138.6,24.06c-.12.06-.24.12-.36.24l-.84,1.02c-1.02,1.38-1.74,2.94-2.4,4.5v.18s0,.06.06.06c0,0,.06,0,.06-.06.06-.18.24-.36.3-.54.6-1.32,1.32-2.7,2.22-3.9l.78-1.14.18-.36ZM135.54,27.96c-.3.24-.42.48-.42.78.24-.18.36-.42.42-.78ZM135.9,27.18c-.18.18-.36.42-.36.66v.12c.24-.18.3-.42.36-.78ZM136.14,26.88c-.24.06-.24.18-.24.3.12-.06.18-.18.24-.3ZM136.14,26.88c.12-.06.12-.18.12-.3-.12.06-.12.18-.12.3ZM136.5,26.28c-.12.06-.24.18-.24.3.12-.06.18-.18.24-.3ZM136.5,26.28c.12-.12.12-.18.12-.3-.12.06-.12.18-.12.3ZM136.68,25.92c.12-.06.18-.18.18-.3-.12.06-.18.18-.18.3ZM136.86,25.62c.12-.06.18-.18.18-.3l-.18.3ZM137.04,27.84c0-.06.06-.12.06-.18,0,.06-.06.06-.12.12l.06.06ZM138.66,25.08c-.54.66-1.02,1.44-1.44,2.22-.06.12-.12.24-.12.36.06-.12.24-.18.3-.3.42-.78.96-1.56,1.56-2.28,0-.06,0-.12.06-.24l.42-.42v-.06l-.06-.06c-.18.12-.3.3-.42.48-.12.12-.24.18-.3.3ZM143.7,33c-.24.06-.36.24-.42.48.18-.12.36-.3.42-.48ZM144.06,32.58c-.12.06-.12.18-.18.24.12-.06.18-.12.18-.24ZM144.54,31.8c-.18.06-.24.36-.3.54.18-.06.24-.3.3-.54ZM145.02,31.44c-.12.06-.3.06-.3.18.12-.06.3-.06.3-.18ZM145.56,30.9c-.12.06-.42.24-.42.36.12-.06.36-.24.42-.36ZM145.92,30.36c-.12.06-.12.24-.12.36.06-.06.12-.18.12-.36ZM146.28,29.88c-.18.06-.3.24-.36.48.3-.12.36-.24.36-.48ZM146.82,29.4c-.24.06-.3.24-.54.48.3-.12.48-.24.54-.48ZM147.06,29.04c-.18.12-.24.24-.24.36.12-.06.12-.18.24-.36ZM147.42,28.62c-.3,0-.36.24-.36.42.24-.06.3-.18.36-.42ZM147.6,28.32c-.12.06-.12.18-.12.3.12-.06.12-.18.12-.3ZM148.25,27.48c-.42.12-.54.48-.66.84.3-.18.48-.48.66-.84ZM148.5,27.12c-.18.06-.18.18-.24.36.18-.12.24-.24.24-.36ZM148.74,26.82c-.24.06-.24.18-.24.3.18-.06.18-.18.24-.3ZM148.92,26.52c-.12.06-.18.18-.18.3.12-.06.18-.18.18-.3ZM149.33,25.8c-.12.06-.12.18-.12.3.12-.06.12-.18.12-.3ZM149.64,25.5c-.12.06-.3.18-.3.3.18-.06.3-.18.3-.3Z"/>
        <path class="cls-1" d="M167.27,29.28v.06c-.06.42-.18.54-.42.84-1.68,1.86-3.66,5.76-6.12,6.78-.6.24-.96.36-1.32.36-.42,0-.84-.18-1.5-.54-.18-.06-.24-.18-.3-.18-.48-.42-.84-.78-1.02-1.38-.06-.36-.12-.72-.12-1.14v-1.2c0-.18,0-.42.06-.6,0-.78.12-1.62.3-2.4.18-1.26.36-2.4.72-3.48.06-.48.18-.84.3-1.32q.06-.06.06-.12c0-.06-.06-.06-.12-.06h-.06c-.06.06-.12.06-.12.12-.48.36-.84.78-1.2,1.26-.84.84-1.5,1.98-2.16,3-.6.84-1.2,1.74-1.68,2.7-.78,1.32-1.5,2.64-1.92,3.96-.24.66-.42,1.26-.54,1.86,0,.12,0,.3-.06.36-.06.18-.24.24-.42.24-.12,0-.24,0-.36-.12-.06-.06-.18-.12-.18-.12h-.12c-.24,0-.3-.18-.48-.36-.12-.06-.42-.12-.54-.24-.3-.12-.42-.36-.42-.54,0-.84.24-1.56.3-2.34.12-.24.12-.54.12-.9,0-.72.12-1.32.24-1.98v-.24c0-.96.3-1.8.3-2.88v-.3c0-.84.48-1.62.48-2.58,0-.12,0-.24.06-.3.12-.9.3-1.68.48-2.4.36-1.92.9-3.78,1.56-5.64.18-.9.42-1.8.84-2.58.18-.72.48-1.5.78-2.04.36-.72.54-1.44,1.02-2.16.42-.66.72-1.32,1.32-1.98.12-.18.42-.42.6-.54s.3-.18.48-.18c.12,0,.18.06.3.06.36.12.72.24,1.08.54.24.18.48.54.48.78,0,.3-.06.48-.24.78-.24.84-.6,1.68-.96,2.58-.66,1.5-1.2,2.94-1.74,4.56-.54,1.08-1.02,2.22-1.5,3.42-.12.42-.3.72-.42,1.02-.24.6-.36,1.2-.48,1.8-.12.72-.36,1.5-.48,2.22-.18,1.14-.48,2.28-.6,3.36,0,.18-.12.42-.12.54v.42s0,.06.06.06.18,0,.18-.06l.12-.12c.9-1.44,1.86-2.82,2.94-4.08.78-.96,1.68-1.92,2.64-2.64.12-.06.24-.18.36-.3s.36-.12.54-.12c1.02.12,1.8.48,1.92,1.56,0,.18.06.36.06.6s-.06.48-.06.72c-.3,1.32-.54,2.52-.72,3.72l-.24,1.8-.12,2.04c-.12.72-.12,1.5-.12,2.34,0,.06,0,.24.06.24,0,.12.12.12.18.12.42-.18.84-.48,1.26-.72.66-.54,1.56-1.44,2.52-2.4.66-.78,1.44-1.56,2.1-2.46.18-.3.6-.72.9-1.2.12-.06.24-.12.36-.12h.06v.24c0,.06,0,.12-.06.18-.54.6-.78,1.02-1.08,1.32,0,.12-.06.18-.12.36.12-.12.36-.24.48-.42.6-.6.84-.9,1.08-1.5,0-.06.18-.24.24-.24v.06q0,.06.06.06t.12.06h.06q.06.06.06.12ZM151.2,32.04c0,.9.96-1.2,1.26-1.68.06-.12.06-.18.06-.24.12-.06.18-.18.24-.24.18-.24.42-.48.48-.9.12-.06.12-.18.18-.3.24-.12.48-.36.48-.54h-.18c-.06,0-.12-.06-.12-.06-.06,0-.06.06-.06.06v.12c0,.06-.06.06-.18.12v.24q-.06,0-.12.06c-.06,0-.06-.06-.06-.06l-.06.06c-.12.06-.18.18-.18.3l-.06.06c.06,0,.06.06.06.06l-.12.3c0,.12-.06.18-.12.18h-.18c-.06.12-.06.24-.12.3-.06.06-.12.18-.18.18,0,.06-.06.06-.06.06,0,.06.06.12.06.12-.36.48-.72,1.2-1.02,1.8ZM156.12,10.86c.06,0,.3-.48.3-.72,0-.06-.06-.12-.12-.12h-.12c-.48.18-3.72,10.5-3.66,10.44.06-.06,3.54-9.6,3.6-9.6ZM154.38,27.48h-.12c-.06,0-.06-.06-.12-.06s-.12.06-.12.06h-.06l.06.06c-.06.12-.12.24-.12.36v.24c.3-.18.48-.36.48-.66ZM154.62,27.06h-.18v-.06l-.06.06v.42c.12-.06.24-.3.24-.42ZM154.67,26.88c-.06.06-.06.12-.06.18.24-.06.3-.18.36-.3-.12,0-.3,0-.3.12ZM155.21,26.34l-.24.12v.3c.06-.06.24-.24.24-.42ZM155.21,26.34c.24-.06.24-.24.3-.42h-.12c-.06,0-.12-.06-.12-.06-.06,0-.06.06-.06.06h-.06c0,.06.06.12.06.12v.3ZM155.51,25.92c.24-.06.3-.18.3-.36-.24.06-.3.18-.3.36ZM155.69,26.46c-.06.06-.12.06-.12.12,0-.06.06-.06.12-.12ZM156,26.1c-.18.06-.24.24-.3.36.18-.06.3-.18.3-.36ZM156.05,25.44c.06-.12.18-.24.18-.42-.18.06-.18.18-.18.42ZM156.47,24.9c.3-.18.48-.36.6-.6-.3.06-.54.3-.6.6ZM157.13,24.18q-.06.06-.06.12l.06-.12ZM163.97,32.4c-.24.24-.3.42-.48.66.3-.3.42-.42.48-.66ZM164.45,32.1c-.24.12-.48.18-.48.3.3,0,.42-.12.48-.3ZM164.93,31.44c-.24.18-.3.42-.48.66.3-.3.42-.42.48-.66ZM165.17,31.14c-.18.18-.24.24-.24.3.12,0,.24-.18.24-.3Z"/>
        <path class="cls-1" d="M168.77,24.24v-.3c-.12.06-.24.24-.24.48.12-.12.18-.18.24-.18-.06.12-.06.18-.06.24s0,.18.06.24c-.72,1.32-1.32,2.58-1.74,4.02-.12.42-.24.84-.3,1.38.12-.06.12-.36.3-.48.36-1.2.78-2.4,1.26-3.54.36-.66.9-1.5,1.08-2.16.24-.18.36-.3.36-.42.06-.18.06-.24.12-.24.36,0,.36.3.42.42v.12s.06-.06.12-.06.06-.06.06-.06c.18,0,.3.06.3.12,0,.3-.12.42-.24.66-.24.84-.54,1.68-.9,2.52-.42,1.5-.96,2.94-1.32,4.44-.24,1.02-.48,2.1-.48,3.24v.9c.06,0,.12.06.18.06.18-.06.42-.12.54-.3.78-.72,1.56-1.38,2.34-2.28.9-.96,1.68-1.92,2.58-2.64.66-.9,1.38-1.62,2.1-2.4.96-.96,1.8-1.98,2.58-2.94l.3-.42c.12.18.12.42.18.6v.12c0,.12-.06.3-.06.42-.06.66-.48,1.26-.96,1.92-.24.12-.48.24-.54.42l-.06.06c-.78.72-1.26,1.38-1.86,2.16-1.14,1.2-2.16,2.46-3.12,3.54-.36.6-.84,1.14-1.2,1.62-.24.36-.54.66-.84,1.02l-.9.84c-.24.12-.54.18-.84.18-.24,0-.42,0-.66-.06-.18-.12-.48-.18-.66-.42-.3-.12-.6-.24-.84-.42-.24-.3-.48-.6-.66-1.02-.24-.6-.42-1.26-.42-1.92,0-1.38.12-2.7.54-4.02.12-.96.3-1.8.72-2.7l1.14-2.28c.3-.6.78-1.14,1.2-1.74.06-.18.36-.18.42-.18.06.18.06.24.12.3,0,.06-.06.12-.06.18.06.06.06.24.06.24h.12v.12q0,.06-.06.12c0,.24-.12.42-.42.48ZM166.31,29.82q0-.06.12-.12c-.12,0-.12.06-.12.06v.06ZM166.43,29.22c-.06.12-.06.18-.06.24s0,.12.06.18c.06,0,.12-.06.12-.12s-.06-.18-.12-.3ZM166.49,28.98q-.06.06-.06.24c.06-.06.06-.12.06-.24ZM166.67,28.56c-.06.06-.06.12-.06.42.06-.06.06-.3.06-.42ZM166.73,30.12c-.06.06-.06.12-.06.18v.24c.06-.06.06-.12.06-.18v-.24ZM166.79,28.26q-.06.06-.06.12v.18c.06-.06.12-.12.12-.18s-.06-.06-.06-.12ZM167.33,26.94c-.3.36-.48.78-.54,1.32.24-.42.54-.72.54-1.32ZM167.45,26.7c-.12,0-.12.12-.12.24.06-.06.12-.18.12-.24ZM167.45,26.4v.24s.06,0,.06-.06-.06-.12-.06-.18ZM168.17,25.08c-.36.36-.6.72-.66,1.32.42-.3.54-.72.66-1.32ZM168.41,24.78c-.12.06-.24.06-.24.3.06-.06.24-.12.24-.3ZM168.53,24.42c-.12.06-.18.06-.18.12s.06.18.06.24c.12-.06.12-.24.12-.36ZM169.13,23.52c-.3.06-.36.18-.36.42.18-.12.36-.12.42-.18,0-.06,0-.12-.06-.24ZM169.49,23.22s0,.06.06.12c-.18,0-.24.06-.3.12.06-.06.06-.12.18-.18,0-.06.12-.12.12-.18l.06-.06v.06c-.06.06-.12.06-.12.12ZM172.79,18.54c-.3.12-.42.24-.54.54-.12.12-.18.24-.18.42,0,.12,0,.18.06.3-.12.18-.18.36-.24.6-.18,0-.24.06-.3.06s-.06-.18-.18-.18v-.18c-.12-.12-.42-.18-.48-.48,0-.24-.24-.18-.42-.36-.18-.06-.18-.18-.18-.3.06-.66.24-1.2.78-1.62.06-.12.24-.12.36-.12s.18,0,.24.06c.18.06.54.18.66.3.24.12.42.42.6.6-.12.06-.12.3-.18.36ZM171.05,34.44c-.24.06-.36.12-.36.24,0,.06.12.18.18.18s.18-.12.18-.3v-.12ZM171.17,34.26c0,.06-.06.12-.12.18h.06c.06-.06.06-.12.06-.18ZM171.53,33.9c-.18.06-.3.12-.36.36.18-.06.3-.18.36-.36ZM171.23,17.94h.12c-.06-.06-.06-.18-.06-.18-.06,0-.06.06-.06.12v.06ZM171.83,17.76v-.06l-.06.06h-.18v-.12c-.24,0-.24.06-.3.12h.18c-.12.06-.12.18-.12.24.06.06.06.12.06.18.36-.06.42-.18.42-.42ZM171.95,33.24l-.24.48c.12-.12.18-.24.24-.48ZM172.07,33.06h-.06v.06s.06,0,.06-.06ZM172.49,32.7c-.18.12-.36.18-.42.36.18-.06.36-.12.42-.36ZM172.37,32.1s0,.06.06.06v-.12c-.06,0-.06.06-.06.06ZM172.43,32.04c.06-.06.18-.06.18-.06,0-.06.06-.18.12-.24-.06,0-.06.06-.12.06-.12.12-.12.18-.18.18v.06ZM172.67,32.64l-.06-.06c-.06,0-.06.06-.12.12h.06s.06,0,.12-.06ZM173.03,32.16c-.18.12-.36.24-.36.48.18-.06.3-.24.36-.48ZM172.73,31.74c.18-.06.36-.24.48-.42-.18.06-.36.12-.48.42ZM173.27,31.8c-.06.18-.12.24-.12.24-.06,0-.12.06-.12.12.06,0,0-.06.12-.06,0-.06.06-.12.12-.12v-.18ZM175.43,28.86c-.24.06-.36.12-.36.3l-.06.18c.18-.12.3-.24.42-.48ZM175.67,29.04c0-.06.06-.06.18-.12-.12.06-.18.06-.18.12ZM176.27,28.5c-.18.06-.24.18-.42.42.3-.06.36-.18.42-.42ZM177.53,26.52c-.18.12-.3.18-.3.36q-.06.06-.06.12c.18-.06.3-.18.36-.48ZM177.53,27.18c-.18.06-.3.18-.36.36.18-.06.36-.12.36-.3v-.06ZM178.07,25.86c-.18.12-.3.3-.36.54.18-.12.3-.24.36-.54ZM178.49,25.26c-.18.06-.24.12-.3.24v.24c.18-.06.3-.3.3-.48Z"/>
        <path class="cls-1" d="M199.49,26.1l-.06.06c0,.24-.06.3-.18.42-.48.42-.9.9-1.32,1.56-.42.54-.84,1.02-1.14,1.68-.66,1.08-1.26,2.22-2.1,3.42-1.08,1.8-2.34,3.42-3.3,5.1-.54,0-1.08.78-1.5,1.44-.54.24-.9.42-1.14.66-.18.12-.42.24-.6.24-.24,0-.48-.12-.72-.36-.48-.12-.36,0-.66-.24-.06-.18-.3-.36-.48-.54-.3-.36-.6-.9-.72-1.26-.12-.66-.18-1.26-.18-1.92.06-.9.24-1.74.36-2.7l.66-2.88c0-.42.24-.72.3-1.08l.24-.72c.24-.9.6-1.8.9-2.7l.78-2.16v-.18h-.12c-.06.12-.12.12-.18.12-.36.3-.66.6-1.08.9-.48.6-1.02,1.14-1.56,1.86-.54.78-1.08,1.44-1.56,2.28-1.08,1.86-2.28,4.02-3.6,5.88-.18.3-.42.54-.66.72-.24.24-.54.36-.78.36-.18,0-.36,0-.54-.12-.3-.18-.6-.36-.84-.72-.18-.18-.36-.24-.48-.48-.18-.36-.42-.66-.54-1.08-.18-.54-.24-1.08-.24-1.62,0-.3.06-.54.06-.84s.06-.6.06-.9c0-.18-.06-.36-.06-.48s-.06-.24-.06-.42c0-1.2.6-2.94,1.02-4.26.18-.54.42-1.14.72-1.68.06-.18.12-.36.24-.48l.24-.42c.24-.3.42-.36.6-.36.12,0,.18,0,.3.06.12,0,.18.06.18.12s0,.12-.06.18c0,.06.06.06.06.06v.12q0-.06.06-.12c.06,0,.24-.12.36-.18h.12v.06c-.06.06-.18.24-.18.36,0,.06.06.06.12.12l.3-.18c.06-.12.06-.18.12-.18l.12-.12.06.06v.24h.12c.06,0,.12.06.12.12s-.06.18-.06.24c-.12.18-.18.36-.24.54q0,.06.06.12h.06c.06-.18.18-.36.3-.48.06-.06.18-.06.18-.06.18,0,.18.06.18.18v.6c0,.12-.06.24-.12.42-.54,1.14-.9,2.4-1.14,3.54-.18.6-.24,1.26-.3,2.04-.12.54-.3,1.02-.36,1.62-.06.24-.06.42-.06.66,0,.12,0,.24.06.3.12,0,.18-.06.3-.12.06-.18.18-.24.24-.36.54-.72,1.08-1.62,1.62-2.4.6-.96,1.14-1.8,1.8-2.64.78-1.02,1.56-2.04,2.52-2.88l1.62-1.56c.18-.18.42-.3.6-.42.18-.12.36-.18.54-.18.12,0,.24,0,.3.06h.24c.42,0,.84.12,1.2.48.24.24.42.6.42,1.08-.06.42-.12.84-.12,1.32-.18,1.26-.42,2.46-.78,3.6-.24.9-.48,1.62-.66,2.46-.18.72-.48,1.62-.6,2.34-.24.9-.42,1.8-.6,2.82-.18.6-.18,1.26-.24,1.98v.24s0,.06.06.06c0,0,.06-.06.12-.06.24-.12.36-.12.48-.12.48,0,.72-.48,1.02-.72.84-1.14,1.8-2.22,2.46-3.42,1.32-1.8,2.58-3.6,3.66-5.46.6-.54.96-1.32,1.5-1.92.48-.3.78-.78,1.14-1.2.06-.06.18-.12.24-.12s.06.06.12.06c.12.12.18.24.3.24h.06v.3h.06q.06,0,.12-.06h.06l.06.06ZM179.75,34.08v-.12c0,.06-.06.12-.06.12h.06ZM179.75,33.9l.18-.12c.18-.18.42-.36.54-.54.84-1.02,1.5-2.16,2.1-3.18.6-1.02,1.26-1.92,1.86-2.88l.12-.24c-.24.06-.36.24-.48.48-.24.42-.54.84-.9,1.26l-.24.36c-.06.06-.06.18-.12.18-.72,1.26-1.44,2.52-2.28,3.6-.3.42-.54.6-.66.9l-.12.18ZM183.77,28.92c-.36.3-.66.84-.9,1.38-.18.12-.3.24-.3.42l-.12.12c-.66,1.2-1.56,2.46-2.28,3.54l-.24.3c.42-.12.54-.36.72-.66.42-.72,1.14-1.62,1.62-2.46.18-.18.24-.54.36-.78.12-.12.24-.24.3-.36.24-.42.54-.78.72-1.14.06-.12.12-.24.12-.36ZM185.03,27c-.24.06-.3.24-.42.54-.12.12-.3.3-.3.54-.18.06-.24.24-.36.42-.06.06-.18.24-.18.42.12-.12.18-.24.24-.42.12-.06.3-.18.3-.36.18-.12.3-.36.36-.6.18-.18.36-.36.36-.54ZM184.67,26.7c.18-.06.3-.24.42-.48-.24.12-.42.3-.42.48ZM185.63,26.16c-.24.18-.36.36-.36.54.12-.18.3-.3.36-.54ZM192.05,36.48c-.36.12-.48.3-.54.6-.18.12-.3.36-.36.6-.3.18-.54.66-.9.66-.18,0-.3.18-.36.36l-.24.36h.06l.66-.72c.36,0,.66-.12.78-.6.24-.12.3-.42.42-.66.24-.12.3-.36.48-.6ZM189.89,38.34c.24,0,.42-.12.6-.42.78-.96,1.5-1.98,2.28-3.06l2.1-3.18c.18-.42.36-.9.66-1.14.24-.36.48-.78.66-1.2.18-.18.36-.48.54-.78.42-.36.66-.72.84-1.08.12-.06.18-.18.18-.36-.12.06-.18.18-.24.3-.06.12-.12.12-.3.18l-.36.66c0,.06-.12.18-.12.24-.06,0-.12,0-.12.06l-.24.36h-.06c-.06.06-.12.12-.12.18s0,.12-.06.18h-.12l-.06-.06-.06.06h-.06c.06.06.06.12.06.12-.06.06-.06.24-.12.3h.06l-.18.3c-.06.06-.12.18-.18.18,0,0-.06,0-.12-.06-.06.06-.06.12-.06.18v.12l-.06.12h.06c-.18.18-.24.24-.24.3-.06.06-.12.18-.12.24,0,.12-.06.18-.18.36v-.06l-.06.06c-.06.06-.12.18-.12.24,0,0-.06,0-.06.06,0,0,.06,0,.06.06l-.18.24c0,.06,0,.24-.12.3-.12.12-.12.18-.18.3l-.06-.06s-.06,0-.06.06-.12.12-.18.12l-.06.06v.12c0,.12-.06.18-.12.18l-.18.3-.12-.12v.06c0,.12-.06.18-.12.24,0,.12-.06.18-.18.3q-.06.06-.06.12c0,.06-.12.18-.18.24h-.06l-.18.24c-.06.12-.06.3-.12.36l-.06.06.06.06c-.06.12-.06.18-.18.24,0-.06-.06-.06-.06-.06,0,0-.06,0-.06.06-.06.06-.12.12-.12.24h.12c-.12.12-.24.24-.42.3v-.06l-.06.06c0,.12-.06.24-.06.3s-.06.06-.06.06l.06.06c-.06.12-.18.18-.24.24-.12.18-.18.36-.36.36,0,.12-.12.24-.3.3,0,.3-.24.54-.48.84-.06.24-.18.42-.3.42ZM192.47,35.82c-.24.12-.3.36-.42.66.3-.12.42-.36.42-.66ZM192.65,35.58c-.06,0-.06.12-.12.18.06,0,.12-.12.12-.18ZM193.13,34.92c-.24.18-.3.36-.42.66.24-.12.36-.36.42-.66ZM193.19,34.8v-.12c-.06.06-.06.12-.06.24q.06-.06.06-.12ZM193.37,34.38c-.06.06-.18.18-.18.3.06-.12.18-.18.18-.3ZM193.91,33.9c-.3.12-.42.24-.54.48.24,0,.36-.18.54-.48ZM194.03,33.72c-.06,0-.12.12-.12.18.06,0,.12-.12.12-.18ZM194.15,33.42c-.06.06-.12.12-.12.24.12-.06.12-.12.12-.24ZM194.39,33.12c-.12.06-.24.18-.24.3l.24-.3ZM194.45,32.94c-.06.06-.06.12-.06.18q.06-.06.06-.18ZM194.57,32.76c-.06,0-.12.06-.12.06q.06,0,.12-.06ZM194.81,32.46c-.12.06-.18.18-.24.3.12,0,.24-.18.24-.3ZM195.59,31.08h-.06v.06s.06,0,.06-.06ZM195.77,30.72c-.12.12-.18.18-.18.36.12-.06.18-.18.18-.36ZM196.61,29.4c-.12.06-.24.18-.24.42.12-.06.24-.24.24-.42ZM196.73,29.16c-.12.06-.12.12-.12.24.06-.06.12-.12.12-.24ZM197.21,28.56c-.12,0-.18.12-.3.3l.3-.3ZM197.45,28.26l-.18.24c.12-.06.18-.12.18-.24ZM197.69,27.9c-.12,0-.18.18-.18.36.12-.06.18-.12.18-.36ZM197.93,27.6c-.18.12-.18.18-.24.3.12-.12.24-.24.24-.3Z"/>
        <path class="cls-1" d="M192.77,50.34c.78-1.56,1.68-3.06,2.58-4.5.6-1.08,1.32-2.1,2.04-3.12.6-.84,1.2-1.74,1.8-2.52.9-1.2,1.86-2.34,2.82-3.48,1.32-1.5,2.7-2.94,4.26-4.26.3-.3.6-.6.66-1.08,0-.3.12-.6.12-.9.24-1.38.36-2.76.54-4.14v-.66c0-.12,0-.18-.12-.24h-.06c-.12,0-.18.24-.36.36l-2.64,3.12c-.96,1.08-1.92,2.16-2.94,3.06-.66.54-1.38,1.02-2.22,1.32-.24.12-.42.12-.66.12-.3,0-.6-.06-.84-.24-.66-.36-1.08-.9-1.44-1.5-.12-.24-.18-.54-.18-.84,0-.18,0-.42.06-.6.24-1.08.6-2.04,1.2-3l.36-.72,1.26-1.86c.6-.72,1.2-1.38,1.98-1.92.6-.42,1.2-.6,1.74-.6.48,0,.96.12,1.44.42.54.24.84.72,1.02,1.32v.54c0,.06-.12.12-.18.12h-.06c-.3-.18-.54-.36-.78-.6-.18-.12-.3-.24-.42-.24s-.24.06-.36.12c-.84.42-1.5,1.08-2.04,1.74-.48.6-.9,1.2-1.32,1.86-.66.96-1.14,1.98-1.56,3-.12.24-.12.48-.24.72v.06c0,.12.06.18.18.18q.06,0,.12-.06c.24-.06.42-.18.6-.3,1.26-.78,2.34-1.68,3.3-2.82l2.64-2.94,2.34-2.82c.18-.24.42-.3.66-.3h.24l.42.18c.78.18,1.2.78,1.38,1.5,0,.36.06.66.06,1.02-.06,1.26-.06,2.52-.18,3.78-.06.24-.06.48-.06.72,0,.06.06.12.12.12h.06l2.52-1.08c1.02-.6,2.04-1.08,2.94-1.68.24-.06.42-.06.54-.06.24.12.3.42.48.48v.06c0,.06-.06.18-.18.24l-.42.3c-1.38.78-2.58,1.56-3.84,2.34-.54.3-1.74,1.02-2.1,1.32-.36.18-.42.48-.48.84l-.18,1.62c-.18,1.86-.36,3.66-.6,5.46-.12.96-.3,1.98-.48,3-.12.9-.42,1.8-.6,2.7-.12.66-.36,1.38-.6,2.04-.42,1.44-.96,2.82-1.56,4.26-.72,1.56-1.56,3.12-2.64,4.5-1.2,1.62-2.7,2.88-4.5,3.66-.96.36-1.92.66-2.88.66h-.24c-.36-.06-.66-.12-.96-.24-1.62-.84-2.64-2.04-2.88-3.84v-.48c0-.36,0-.72.06-1.08.18-1.44.66-2.82,1.26-4.14ZM206.51,34.8s-.06-.06-.12-.06h-.12l-1.14,1.08-1.02,1.14c-.84,1.02-1.74,2.04-2.52,3.06l-1.74,2.34c-1.02,1.44-2.04,2.88-2.88,4.38-.66,1.08-1.26,2.22-1.8,3.3-.78,1.38-1.32,2.88-1.74,4.38-.12.48-.18.96-.18,1.44,0,.42.06.84.18,1.26.06.3.18.6.3.84.18.3.42.42.72.42h.18c.6-.12,1.08-.24,1.62-.48,1.08-.54,2.04-1.14,2.94-1.98.78-.84,1.5-1.74,2.04-2.64.6-.96,1.02-1.92,1.44-2.88.72-1.62,1.32-3.3,1.8-5.04.54-1.74.9-3.48,1.26-5.28.3-1.26.42-2.58.6-3.84l.18-1.44ZM194.27,49.38l-.06-.06v.12l.06-.06ZM194.51,48.96c-.12.06-.18.18-.24.3.12-.06.24-.18.24-.3ZM194.69,48.6c-.12.06-.18.12-.18.3.12-.06.12-.18.18-.3ZM196.67,45.3c.18-.18.18-.3.24-.48l-.3.18-.42.6c-.06,0-.06-.06-.06-.06l-.06.06-.24.36c-.06.06-.12.18-.12.3-.12.12-.18.18-.18.3l-.18.3c-.12.12-.12.24-.18.36l-.42.6c-.06.06-.12.12-.12.18s0,.12.06.12v.48c.12-.12.24-.24.3-.36l1.68-2.94ZM200.09,39.9s0,.06.06.06l-.24.3c0,.12,0,.18-.06.3l-.3.18c0,.06-.06.18-.06.3l-.36.18h.06l-.18.3c0,.12-.06.18-.12.3l-.3.18-.06-.06-.06.06-.18.3s-.12.06-.06.06v.12l-.12.3-.24.3c-.06,0-.12-.06-.12-.06-.06,0-.06.06-.06.06,0,.12-.06.24-.12.36h-.06v.12l-.18.36-.06-.06s-.06,0-.06.06l-.42.6h.18c-.06.12-.06.18-.06.3l.24-.3c.36-.3.54-.66.72-1.08.42-.48.84-1.02,1.08-1.56.36-.24.48-.48.6-.78.18-.12.3-.3.36-.48.42-.42.78-.9,1.08-1.44.18-.12.3-.24.36-.48-.24.06-.36.24-.42.42-.18.24-.42.48-.66.66-.06,0-.06-.06-.06-.06l-.06.06c-.06.06-.06.12-.06.12ZM198.47,27.48c-.18.06-.24.18-.24.3.12-.06.12-.18.24-.3ZM198.59,27.18c-.12.06-.12.18-.12.3.12-.06.12-.18.12-.3ZM200.03,24.48l-.24.36-.18.12c-.12.06-.12.18-.18.36-.06,0-.12.06-.18.12-.06.12-.12.24-.12.3-.24.12-.24.24-.24.36h.18l-.24.48c-.12.18-.24.36-.24.6.12-.12.18-.24.36-.36l1.32-1.86.9-1.08c.06,0,0-.06,0-.12h-.06l-.6.54c-.18.18-.42.36-.54.54,0-.12.06-.24.06-.36ZM199.01,41.52c-.06,0-.12-.06-.12-.06-.06,0-.06.06-.06.06h.18ZM200.15,26.1c.06-.12.12-.24.24-.36l-.36.3.06.06h.06ZM201.23,54.78c-.18.06-.36.18-.36.42.12,0,.18-.06.3-.12-.12.42-.42.72-.78,1.02-.12.18-.24.3-.3.48l.42-.18c.9-.9,1.62-1.92,2.22-3.06.06-.06.12-.18.12-.3-.3.36-.6.72-.84,1.08-.12.18-.24.42-.48.48-.06-.48-.24-.18-.3.18ZM200.51,40.56c-.12.06-.18.12-.18.3.06-.06.06-.18.18-.3ZM201.41,24.48l-.24.18c-.24.12-.42.3-.54.6-.18.12-.24.3-.24.48.18-.06.24-.24.3-.42.3-.18.48-.36.54-.66.12-.06.18-.12.18-.12v-.06ZM200.87,40.08c-.24.12-.3.3-.36.48.24-.06.3-.24.36-.48ZM201.23,39.66c-.18.06-.3.24-.36.42.18-.06.3-.24.36-.42ZM200.99,56.82c.12-.06.24-.12.36-.24.48-.48.9-1.02,1.32-1.62.12-.12.12-.24.12-.36-.12.06-.12.12-.18.18l-1.44,1.74-.18.3ZM201.59,39.18c-.18.06-.3.18-.36.42.18-.06.36-.24.36-.42ZM201.35,38.7c.24-.12.48-.36.54-.66-.3.12-.48.36-.54.66ZM206.21,25.08c-.06,0-.72.42-.66.42v.12c-.18.18-.36.24-.54.48v.12c-.06.36-.36.36-.54.54,0,.36-.6.72-.78,1.2-.18.12-.24.3-.36.42-.36.3-.72.54-.9,1.02-.06,0-.06.06-.12.12l-.84.78c-.06,0-.06.06-.06.12h.06c.36-.24.66-.48.84-.84l.18-.18c.42-.24.72-.54.9-.9.18-.24.42-.42.66-.66.6-.72,1.32-1.5,1.92-2.28l.3-.42c.24-.12.42-.36.54-.6,1.74-1.74.42-1.08-.6.54ZM201.95,38.7c-.18.06-.36.24-.36.48.24-.12.36-.3.36-.48ZM201.89,38.04c.18-.06.3-.24.36-.42.3-.18.42-.36.54-.66-.24.12-.48.3-.54.6-.18.12-.36.24-.36.48ZM202.49,38.04c-.18.12-.3.3-.36.48.18-.06.36-.24.36-.48ZM202.37,30.36c.36-.18.6-.42.72-.84-.3.18-.6.42-.72.84ZM202.79,36.96c.24-.12.48-.36.54-.66-.3.12-.48.36-.54.66ZM203.27,52.08c-.18.3-.42.6-.42.96.24-.24.42-.54.48-.9v-.06h-.06ZM203.09,29.52c.06,0,.12-.06.18-.12l-.18.12ZM203.27,29.4c.24-.12.48-.36.54-.66-.3.18-.48.36-.54.66ZM203.45,36.18c.3-.12.54-.36.54-.66-.24.12-.42.36-.54.66ZM204.11,36.18c-.18.06-.3.24-.36.48.24-.12.36-.3.36-.48ZM203.99,28.62c.24-.12.3-.3.3-.48-.18.06-.3.24-.3.48ZM204.53,27.96c.24-.06.3-.24.36-.48-.24.12-.36.24-.36.48ZM204.53,35.04c.18-.06.3-.18.36-.36-.24.06-.3.18-.36.36ZM205.07,27.36c.18-.12.3-.3.36-.48-.24.06-.36.24-.36.48ZM205.61,26.7c.18-.06.3-.24.36-.48-.18.12-.36.24-.36.48ZM205.73,34.56c.18-.06.3-.24.36-.42-.18.06-.36.24-.36.42ZM206.15,26.1c.18-.12.3-.3.36-.48-.18.06-.36.24-.36.48ZM206.69,25.44c.24-.12.48-.3.48-.6-.24.12-.42.3-.48.6Z"/>
      </g>
      <path class="cls-2" d="M396.76,37.05c0,2.8-2.27,5.06-5.06,5.06s-5.06-2.27-5.06-5.06,2.27-5.06,5.06-5.06,5.06,2.27,5.06,5.06Z"/>
    </g>
  </g>
</svg>