<?xml version="1.0" encoding="UTF-8"?>
<svg xmlns="http://www.w3.org/2000/svg" version="1.1" viewBox="0 0 258.01 258.01">
  <defs>
    <style>
      .cls-1 {
        fill: #fff;
      }
    </style>
  </defs>
  <!-- Generator: Adobe Illustrator 28.7.1, SVG Export Plug-In . SVG Version: 1.2.0 Build 142)  -->
  <g>
    <g id="Ebene_1">
      <g>
        <polygon class="cls-1" points="100.86 129.01 49.96 166.61 49.96 91.41 100.86 129.01"/>
        <path class="cls-1" d="M194.61,173.09H63.39l48.58-35.88,13.12,9.69c1.13.85,2.49,1.29,3.91,1.29s2.78-.44,3.92-1.29l13.12-9.69,48.57,35.88Z"/>
        <polygon class="cls-1" points="194.61 84.93 129 133.39 63.39 84.93 194.61 84.93"/>
        <polygon class="cls-1" points="208.05 91.41 208.05 166.61 157.14 129.01 208.05 91.41"/>
        <path class="cls-1" d="M217.63,0H40.37C18.07,0,0,18.08,0,40.38v177.26c0,22.3,18.07,40.38,40.37,40.38h177.26c22.3,0,40.38-18.08,40.38-40.38V40.38C258.01,18.08,239.93,0,217.63,0ZM221.24,179.69c0,3.63-2.96,6.6-6.6,6.6H43.36c-3.64,0-6.6-2.97-6.6-6.6v-101.36c0-3.63,2.96-6.6,6.6-6.6h171.28c3.64,0,6.6,2.97,6.6,6.6v101.36Z"/>
      </g>
    </g>
  </g>
</svg>