<?xml version="1.0" encoding="UTF-8"?>
<svg xmlns="http://www.w3.org/2000/svg" version="1.1" viewBox="0 0 79.74 121.32">
  <defs>
    <style>
      .cls-1, .cls-2 {
        fill: #c6bbb6;
        fill-rule: evenodd;
        opacity: .35;
      }

      .cls-2 {
        display: none;
      }
    </style>
  </defs>
  <!-- Generator: Adobe Illustrator 28.7.1, SVG Export Plug-In . SVG Version: 1.2.0 Build 142)  -->
  <g>
    <g id="Tasse_Kopie">
      <g id="Rauch">
        <path class="cls-2" d="M34.6,120.3c-1.22-12.44-1.81-17.52-8.92-24.75-8.32-8.44-3.84-14.92-6.9-18.06-9.04-9.31,2.7-17.94,1.11-28.45-1.63-10.72-12.67-9.79-8.4-25.74,2.3-8.59,36.96-16.59,43.7,12.07,3.33,14.14,10.32,26.16-2.6,33.36-26.81,14.93,21.39,29.31-9.72,38.72-7.5,2.27-.3,10.37-.22,11.14,0,.05,0,.22-.03.45-1.16.15-2.33.32-3.52.5-1.53.23-3.03.48-4.49.74Z"/>
        <path class="cls-1" d="M29.44,121.32c-8.83-3.09-13.64-12.81-5.78-17.98,5.71-3.76,12.77-7.43,12.81-16.01.08-15.18-33.21-9.37-36.18-24.61-1.8-9.27,15.66-16.52,18.01-23.65,3.69-11.18,18.28-19.8,22.3-10.42,2.6,6.07,23.23,14.86,23.12,25.96-.06,5.73-6.41,8.32-13.38,11.29-5.47,2.33-10.72,7.04-4.42,17.28,1.99,3.23,5.45,8.01,3.7,11.58-1.2,2.46-7.26,3.42-12.44,5.58-4.18,1.75-10.13,6.36-8.98,11.45.82,3.64,6.23,6.22,9.21,8.04-2.79.45-5.47.96-7.99,1.5Z"/>
        <path class="cls-1" d="M34.2,120.37c-.94-5.14-5.69-7.94-9.37-11.06-3.75-3.18-6.41-6.64-3.63-8.45,23.12-15.05-5.68-15.22-12.93-19.25-21.35-11.84,3.59-19.75,19.4-27.12,15.49-7.22,19.64-21.19,1.48-19.21C6.14,37.79-2.55,28.79,9.1,14.14c2.47-.49,25.37-23.15,41.97-10.09,4.46,3.51-.72,12.3-7.53,16.38-11.56,6.92,20.65,3.96,25.34,6.83,4.05,2.47,12,2.55,10.72,12.65-2.5,19.71-44.88,15.69-46.92,25.71-1.72,8.43,37.25,1.19,20.42,14.53-1.67,1.33-22.33,9.77-5.46,15.06,7.03,2.2,4.18,5.55.89,10.42-2.39,3.54-5.03,7.9-4.27,13.22-1.69.2-3.42.44-5.18.7-1.67.25-3.3.53-4.89.82Z"/>
      </g>
    </g>
  </g>
</svg>