<?xml version="1.0" encoding="UTF-8"?>
<svg xmlns="http://www.w3.org/2000/svg" version="1.1" viewBox="0 0 130 11.54">
  <defs>
    <style>
      .cls-1 {
        fill: #f00c75;
      }
    </style>
  </defs>
  <!-- Generator: Adobe Illustrator 28.7.1, SVG Export Plug-In . SVG Version: 1.2.0 Build 142)  -->
  <g>
    <g id="Ebene_1">
      <path class="cls-1" d="M128.11,10.57c-.38.1-.63.08-1,.06-.75-.05-1.35-.34-1.53-1.36-.34-.52-.59-.54-1.09-.58-.98-.32-1.72-.37-2.59-.55l-5.23-.36c-1.6-.36-3.34-.48-4.96-.59l-4.98-.34c-2.12-.15-4.12-.03-6.24-.18l-5.85-.4c-2.62-.06-5.25.01-7.74-.16-1.88,0-3.49-.12-5.36-.24-1.12-.08-2.26.09-3.38.02-5,.03-10.26.04-15.25-.18-1.76.13-3.14.16-4.88.04-2.76.06-5.38,0-8.27.18-1.74-.12-3.88.11-5.77.23-1.25.04-2.62-.06-4.13.09-3.27.27-6.91.4-10.31.79-3.77.24-7.43.74-11.46,1.09-3.79.49-7.7,1.09-11.64,1.95-1.15.3-2.29.59-3.42.64-.76.2-1.52.27-2.31.84h-.12c-.12-.02-.37-.16-.36-.28-.2-.76-.16-1.26-.24-1.89,0-.12.16-.49.41-.47.54-.59,1.31-.79,2.08-1.11,1.3-.66,2.83-1.18,4.35-1.45,5.23-1.52,10.3-2.42,15.6-3.18,3.41-.52,6.7-1.04,10.1-1.43l7.55-.6c1.89-.25,3.91-.48,6.03-.46.89-.19,2.01-.11,3.01-.17,5.15-.27,10.28-.42,15.29-.45,3.76-.12,7.5.02,11.13.02,2.25.03,4.74.2,6.98.36,1.24.09,2.76-.06,4,.03l13.07.9c2.99.21,5.71.64,8.45.83l4.36.3c2.74.19,5.33.74,7.94.92,2.36.29,4.82.83,7.16,1.37.23.27.61.29.72.42,1.36.22,1.78,1.37,1.69,2.74.11.26.09.51.08.63-.03.5-.3.73-.58,1.21-.16.49-.81.82-1.31.79ZM1.52,9.09s0-.12-.12-.13-.26.11-.26.11l-.03.5s.12,0,.13-.12c.12,0,.25.02.26-.11l.02-.25ZM2.02,9.12c-.12,0-.13.12-.27.23.13-.12.14-.24.27-.23ZM2.07,10.13c.25.02.75-.07,1.02-.3-.12,0-.12-.13-.24-.14-.37-.03-.76.2-1.03.43l.25.02ZM5.2,8.34c-.12,0-.24-.14-.36-.15-.62-.04-1.4.4-2.04.61.87.06,1.12.08,2.41-.46ZM4.11,9.64c.37.03.76-.07,1.02-.31l-.25-.02c-.37-.03-.76.07-1.02.31l.25.02ZM5.59,8.12s-.12,0-.39.22c.25.02.39-.22.39-.22ZM6.08,8.28c.5.03,1.02-.3,1.41-.53-.12,0-.36-.15-.49-.16-.5-.03-.9.31-1.41.53.12,0,.37.15.49.16ZM6.54,8.81c-.25-.02-.37-.03-.64.21.12.13.24.14.36.15.25.02.51-.09.76-.2-.12-.13-.36-.15-.49-.16ZM19.07,4.8l-.03.37c-.26.11-.52.21-.76.2-.12,0-.25-.02-.36-.15-.77.32-1.54.52-2.28.47-.38.1-.52.34-.91.44l-1.49-.1c-.79.57-1.54.52-2.43.83-.63.08-1.02.3-1.53.39l-.25-.02c-.5-.03-1.01.18-1.54.52l.25.02c.5.03,1.01-.18,1.52-.27.14-.24.52-.21.76-.2,1.27-.29,2.65-.32,3.79-.61.27-.23.52-.34.9-.31.52-.21.89-.19,1.51-.15,3.79-.61,7.58-1.1,11.49-1.58,9.58-1.09,19.12-1.56,28.64-1.78,9.88-.07,19.65-.15,29.5.28,5.61.26,11.09.64,16.71.78,4.73.33,9.07.88,13.8,1.2.25.02.63-.08.76-.2-.24-.14-.49-.16-.74-.18l-.75-.05c-3.97-.4-7.7-.78-11.56-1.05l-4.23-.29c-6.35-.44-12.71-.63-18.95-.93-5.1-.35-9.86-.31-14.99-.28-3.13.03-6.27.19-9.51.09l-1.49-.1c.12,0,.27-.23.4-.35-.5-.03-1-.07-1.26.16-.12-.13-.24-.14-.36-.15s-.37-.03-.38.1c-.12,0-.24-.14-.37-.15s-.12,0-.26.11c-.12,0-.37-.03-.51.09-.12,0-.24-.14-.36-.15s-.13.12-.26.11-.24-.14-.36-.15-.26.11-.38.1c0,0-.12-.13-.24-.14s-.38.1-.65.33c-.12,0-.24-.14-.37-.15s-.12,0-.26.11c-.12,0-.25-.02-.51.09-.12,0-.24-.14-.37-.15s-.26.11-.38.1l-.5-.03c-.25-.02-.27.23-.39.22s-.24-.14-.37-.15-.12,0-.26.11c-.12,0-.24-.14-.36-.15,0,0-.12,0-.13.12-.25-.02-.37-.03-.75.07l-.62-.04c-.12,0-.24-.14-.36-.15s-.26.11-.52.34c-.12,0-.24-.14-.37-.15s-.12,0-.26.11l-.75-.05c0,.12-.13.12-.38.1-.12,0-.37-.03-.52.21-.12-.13-.24-.14-.36-.15s-.12,0-.26.11q-.12-.13-.24-.14c-.12,0-.25-.02-.26.11-.25-.02-.38.1-.38.1l-1.37-.09c-.12,0-.37-.03-.52.21q-.25-.02-.38.1c-.12,0-.12-.13-.24-.14s-.26.11-.26.11c-.12,0-.24-.14-.37-.15s-.26.11-.38.1c0,0-.27.23-.39.22-.12-.13-.24-.14-.36-.15s-.12,0-.26.11c-.12,0-.24-.14-.36-.15,0,0-.12,0-.13.12-.26.11-.38.1-.38.1l-.62-.04c-.12,0-.52.21-.76.2,0,0-.12,0-.38.1-.12,0-.12-.13-.24-.14s-.26.11-.26.11l-.62-.04c-.12,0-.39.22-.39.22q-.12-.13-.24-.14c-.12,0-.25-.02-.26.11,0,0,.12.13.36.15-.65.33-1.15.3-1.77.25q.26-.11.27-.36l-.62-.04q-.14.24-.39.22l-.5-.03c-.26.11-.38.1-.38.1-.25-.02-.37-.03-.64.21.12,0,.24.14.36.15-.39.22-.65.33-1.02.3-.25-.02-.49-.16-.61-.17.12,0,.14-.24.14-.24l-.5-.03c-.12,0-.14.24-.39.22l-.5-.03c-.25-.02-.38.1-.38.1l-.62-.04c-.12,0-.39.22-.52.21l-.62-.04c0,.12-.13.12-.38.1l-.5-.03q-.27.23-.39.22l-.62-.04c-.13.12-.38.1-.38.1-.12,0-.37-.03-.52.21l-.62-.04ZM8.32,8.43c-.37-.03-.64.21-.9.31.12.13.24.14.37.15.37.03.76-.2,1.02-.3-.12-.13-.37-.15-.49-.16ZM9.71,8.15c-.25-.02-.64.21-.91.44l.25.02c.37.03.76-.07,1.02-.31-.12-.13-.24-.14-.36-.15ZM11.23,7.88c-.37-.03-.64.21-1.15.42l.37.03c.37.03.75-.07,1.15-.3-.12-.13-.24-.14-.37-.15ZM12.5,7.6c-.37-.03-.64.21-.91.44l.25.02c.25.02.63-.08,1.15-.3-.12-.13-.36-.15-.49-.16ZM13.52,7.42c-.12,0-.26.11-.52.34.12,0,.24.14.36.15s.26-.11.52-.34c-.12,0-.24-.14-.36-.15ZM13.88,7.57c.75.05,1.62.11,2.4-.33-1.12-.08-1.49-.1-2.4.33ZM15.65,5.44l-.02.25q0-.12.14-.24h-.12ZM18.17,6.99c.37.03.75.05,1.01-.18.37.03.75.05,1.13-.05.12,0,.5.03.89-.19.37.03.62.04,1-.06.87.06,2.39-.21,3.54-.51l.37.03,6.79-.53c0-.12.13-.12.4-.35.11.26.36.27.73.3,1.64-.26,3.53-.38,5.16-.39.25.02.39-.22.64-.21.5.03,1.25.09,2,.01,4.88-.04,9.78-.33,14.67-.49,5.13-.02,10.38-.03,15.5.07,5.38,0,10.61.23,15.74.33,5.24.24,10.23.33,15.34.68s10.58.73,15.92,1.35c.12,0,.5.03.89-.19-.47-.41-.99-.19-1.59-.49l-25.02-1.73c-2.88.05-5.62-.14-8.49-.21-3.88-.02-7.98-.3-12.12-.21-8.74-.23-17.63-.09-26.4.18-1.88.12-4.03.35-5.9.34-.12,0-.39.22-.52.21l-1.49-.1-3.89.23c-.39.22-.76.2-1.39.28l-.75-.05c-1.88.12-3.53.38-5.28.39-.39.22-.77.32-1.27.29-1.12-.08-2.38.09-3.54.51l-.25-.02c-.25-.02-.51.09-.76.2-.12-.13-.24-.14-.36-.15-.25-.02-.38.1-.52.21-.37-.03-.75-.05-1.14.17-.25-.02-.62-.04-1,.06-.37-.03-.5-.03-.89.19-.37-.03-.75-.05-1.02.31l.25.02c.25.02.51-.09.76-.2.37.03.5.03.88-.06ZM17.92,5.22q.12,0,.26-.11c-.25-.02-.26.11-.26.11ZM55.8,1.83s.12,0,.26-.11c-.12,0-.26.11-.26.11ZM56.06,1.72q.12.13.24.14c.12,0,.25.02.38-.1l-.62-.04ZM57.43,1.82c-.12-.13-.24-.14-.36-.15s-.25-.02-.38.1l.75.05ZM57.92,1.85q-.12-.13-.24-.14c-.12,0-.25-.02-.26.11l.5.03ZM57.92,1.85c.25.02.37.03.64-.21-.25-.02-.37-.03-.64.21ZM58.56,1.64c0,.12.11.26.23.27s.13-.12.27-.23l-.5-.03ZM60.43,1.77c-.12,0-.24-.14-.36-.15s-.13.12-.26.11l.62.04ZM62.7,1.55q.12.13.24.14t.26-.11l-.5-.03ZM63.19,1.59q.12.13.24.14c.12,0,.25.02.26-.11l-.5-.03ZM64.32,1.54c0,.12.12.13.24.14s.25.02.51-.09l-.75-.05ZM65.07,1.59c0,.12.12.13.24.14s.12,0,.26-.11l-.5-.03ZM66.82,1.59s.12.13.24.14.26-.11.39-.22c-.12,0-.37-.03-.63.08ZM67.45,1.51c.12.13.11.26.23.27s.26-.11.39-.22l-.62-.04ZM68.07,1.55q.12.13.24.14c.12,0,.25.02.26-.11l-.5-.03ZM69.95,1.55c0,.12.12.13.24.14s.12,0,.26-.11l-.5-.03ZM73.56,1.8q-.12-.13-.24-.14c-.12,0-.25-.02-.26.11l.5.03ZM75.82,1.71l-.12-.13c0,.12-.13.12-.13.12l.25.02ZM80.93,1.94s0-.12-.24-.14c0,0,0,.12-.13.12l.37.03ZM118.25,4.89c-.25-.02-.62-.04-1,.06.48.28.85.43,1.34.47.25.02.63-.08.88-.06-.36-.27-.72-.43-1.22-.46ZM122.31,5.79q.12,0,.26-.11c-.12-.13-.23-.27-.48-.28q-.12,0-.26.11c-.36-.15-.85-.31-1.23-.33s-.76.07-1.14.17c.49.16.85.31,1.35.34.25.02.63-.08.89-.19.24.14.48.28.6.29ZM120.38,6.53c-.12,0-.38.1-.51.09.12.13.23.27.36.27s.26-.11.39-.22c-.12,0-.12-.13-.24-.14ZM121.5,6.61c-.25-.02-.63.08-.88.06.23.27.48.28.73.3s.5.03.76-.2c-.25-.02-.37-.15-.61-.17ZM122.85,7.08c-.12-.13-.23-.27-.48-.28l-.25-.02c.12.13.48.28.6.29h.12ZM122.95,5.59c-.12,0-.25-.02-.38.1.12,0,.37.15.49.16s.25.02.26-.11c-.12,0-.12-.13-.36-.15ZM122.85,7.08l.87.06c-.12,0-.37-.15-.49-.16s-.25-.02-.38.1ZM123.56,5.75l-.25-.02c.12.13.36.27.48.28s.25.02.38-.1c-.12-.13-.36-.15-.61-.17ZM124.33,7.31c0-.12-.12-.13-.12-.13l-.37-.03q.12.13.37.15h.12ZM124.79,6.09c-.12,0-.11-.26-.11-.26-.25-.02-.26.11-.39.22l.5.03Z"/>
    </g>
  </g>
</svg>