<svg id="visual" viewBox="0 0 900 200" width="900" height="200" xmlns="http://www.w3.org/2000/svg" xmlns:xlink="http://www.w3.org/1999/xlink" version="1.1"><rect x="0" y="0" width="900" height="200" fill="#FFFFFF"></rect><path d="M0 83L13.7 89.8C27.3 96.7 54.7 110.3 82 111.3C109.3 112.3 136.7 100.7 163.8 102.3C191 104 218 119 245.2 114C272.3 109 299.7 84 327 77.8C354.3 71.7 381.7 84.3 409 93.3C436.3 102.3 463.7 107.7 491 102.5C518.3 97.3 545.7 81.7 573 86.5C600.3 91.3 627.7 116.7 654.8 118.3C682 120 709 98 736.2 94.2C763.3 90.3 790.7 104.7 818 106.2C845.3 107.7 872.7 96.3 886.3 90.7L900 85L900 0L886.3 0C872.7 0 845.3 0 818 0C790.7 0 763.3 0 736.2 0C709 0 682 0 654.8 0C627.7 0 600.3 0 573 0C545.7 0 518.3 0 491 0C463.7 0 436.3 0 409 0C381.7 0 354.3 0 327 0C299.7 0 272.3 0 245.2 0C218 0 191 0 163.8 0C136.7 0 109.3 0 82 0C54.7 0 27.3 0 13.7 0L0 0Z" fill="#F398BA" stroke-linecap="round" stroke-linejoin="miter"></path></svg>