<?xml version="1.0" encoding="UTF-8"?>
<svg xmlns="http://www.w3.org/2000/svg" version="1.1" viewBox="0 0 255.21 258.01">
  <defs>
    <style>
      .cls-1 {
        fill: none;
      }

      .cls-2 {
        fill: #fff;
      }
    </style>
  </defs>
  <!-- Generator: Adobe Illustrator 28.7.1, SVG Export Plug-In . SVG Version: 1.2.0 Build 142)  -->
  <g>
    <g id="Ebene_1">
      <g>
        <path class="cls-2" d="M206.19,109.38c-8.14-35.63-39.46-60.18-76.03-60.42-5.2.19-10.82.68-16.35,1.94-16.64,3.77-30.57,12.11-41.74,24.97-11.13,12.79-17.37,27.74-18.69,44.6-1.4,17.73,2.93,34.11,12.7,48.99.9,1.37,1.05,2.56.6,4.1-2.12,7.32-4.07,14.7-6.27,22-.68,2.28-.21,2.51,1.89,1.94,7.53-2.03,15.11-3.91,22.65-5.92,1.68-.45,3.03-.32,4.59.66,11.25,7.05,23.57,11.05,36.81,11.67,19.09.88,36.38-4.39,51.59-16.11,24.31-18.73,34.88-49.37,28.25-78.42ZM177.94,151.59c-2.49,16.79-17.6,21.82-29.55,18.71-19.86-5.16-35.87-16.27-48.98-31.82-5.91-7-11.25-14.37-14.08-23.23-3.46-10.82-2.43-20.69,6.06-29.09,2.54-2.52,5.26-3.92,9.02-3.16,4.52-.99,6.79,1.35,8.3,5.56,1.87,5.21,4.22,10.25,6.52,15.3,1.16,2.56.83,4.59-1.12,6.6-1.93,2-3.61,4.24-5.51,6.27-1.48,1.58-1.54,3.08-.48,4.92,6.79,11.74,16.4,20.39,28.76,25.88,6.63,2.94,5.44,3.53,10.24-2.65,1.6-2.06,3.17-4.14,4.78-6.19,1.16-1.49,2.57-1.93,4.36-1.11,6.61,3.06,13.24,6.07,19.85,9.12,2.2,1.02,2.13,2.87,1.83,4.89Z"/>
        <path class="cls-2" d="M197.82,0H57.38C25.69,0,0,25.69,0,57.39v143.24c0,31.69,25.69,57.39,57.38,57.39h140.44c31.69,0,57.39-25.7,57.39-57.39V57.39C255.21,25.69,229.51,0,197.82,0ZM223.61,133.33c-1.47,19.77-8.5,37.33-21.08,52.52-13.07,15.79-29.63,26.36-49.64,31.18-22.68,5.47-44.48,2.94-65.25-7.75-1.81-.93-3.39-1.19-5.42-.65-14.59,3.86-29.21,7.57-43.83,11.32-.31.08-.64.11-1.33.22,4.21-14.87,8.3-29.39,12.44-43.89.48-1.67.42-3.05-.48-4.64-9.38-16.7-13.16-34.74-11.26-53.7,2.68-26.72,14.74-48.54,35.92-65.19,11.32-8.9,24.1-14.82,38.18-17.6,23.14-4.56,45.13-1.12,65.6,10.77,17.69,10.28,30.65,24.93,38.8,43.67,6.06,13.93,8.48,28.52,7.35,43.74Z"/>
        <path class="cls-1" d="M206.19,109.38c-8.14-35.63-39.46-60.18-76.03-60.42-5.2.19-10.82.68-16.35,1.94-16.64,3.77-30.57,12.11-41.74,24.97-11.13,12.79-17.37,27.74-18.69,44.6-1.4,17.73,2.93,34.11,12.7,48.99.9,1.37,1.05,2.56.6,4.1-2.12,7.32-4.07,14.7-6.27,22-.68,2.28-.21,2.51,1.89,1.94,7.53-2.03,15.11-3.91,22.65-5.92,1.68-.45,3.03-.32,4.59.66,11.25,7.05,23.57,11.05,36.81,11.67,19.09.88,36.38-4.39,51.59-16.11,24.31-18.73,34.88-49.37,28.25-78.42ZM177.94,151.59c-2.49,16.79-17.6,21.82-29.55,18.71-19.86-5.16-35.87-16.27-48.98-31.82-5.91-7-11.25-14.37-14.08-23.23-3.46-10.82-2.43-20.69,6.06-29.09,2.54-2.52,5.26-3.92,9.02-3.16,4.52-.99,6.79,1.35,8.3,5.56,1.87,5.21,4.22,10.25,6.52,15.3,1.16,2.56.83,4.59-1.12,6.6-1.93,2-3.61,4.24-5.51,6.27-1.48,1.58-1.54,3.08-.48,4.92,6.79,11.74,16.4,20.39,28.76,25.88,6.63,2.94,5.44,3.53,10.24-2.65,1.6-2.06,3.17-4.14,4.78-6.19,1.16-1.49,2.57-1.93,4.36-1.11,6.61,3.06,13.24,6.07,19.85,9.12,2.2,1.02,2.13,2.87,1.83,4.89Z"/>
      </g>
    </g>
  </g>
</svg>